<mxfile host="app.diagrams.net" modified="2023-06-17T11:57:15.173Z" agent="Mozilla/5.0 (Windows NT 10.0; Win64; x64) AppleWebKit/537.36 (KHTML, like Gecko) Chrome/114.0.0.0 Safari/537.36" etag="LFEfJWZjU_YGZhMbOOeo" version="21.2.9" type="device">
  <diagram name="Page-1" id="PuzVgMzKboJiEYnX6Mf8">
    <mxGraphModel dx="1580" dy="722" grid="1" gridSize="10" guides="1" tooltips="1" connect="1" arrows="1" fold="1" page="1" pageScale="1" pageWidth="827" pageHeight="1169" math="0" shadow="0">
      <root>
        <mxCell id="0" />
        <mxCell id="1" parent="0" />
        <mxCell id="p18OMniudlgOb_beyLV6-1" value="" style="group" vertex="1" connectable="0" parent="1">
          <mxGeometry x="-240" y="490" width="980" height="530" as="geometry" />
        </mxCell>
        <mxCell id="p18OMniudlgOb_beyLV6-2" value="&lt;font size=&quot;1&quot;&gt;&lt;b style=&quot;font-size: 12px&quot;&gt;OCI Region&lt;/b&gt;&lt;/font&gt;" style="rounded=1;whiteSpace=wrap;html=1;labelBackgroundColor=none;gradientColor=none;fontFamily=Oracle Sans;fontSize=11;align=center;strokeColor=#9E9892;arcSize=2;fillColor=#F5F4F2;verticalAlign=top;spacingRight=5;fontColor=#312D2A;" vertex="1" parent="p18OMniudlgOb_beyLV6-1">
          <mxGeometry x="143.97833333333332" width="731.0216666666668" height="530" as="geometry" />
        </mxCell>
        <mxCell id="p18OMniudlgOb_beyLV6-5" value="&lt;font color=&quot;#181615&quot; size=&quot;1&quot;&gt;&lt;b style=&quot;font-size: 12px&quot;&gt;On-Premises&lt;/b&gt;&lt;/font&gt;" style="rounded=1;whiteSpace=wrap;html=1;labelBackgroundColor=none;gradientColor=none;fontFamily=Oracle Sans;fontSize=11;align=center;arcSize=8;verticalAlign=top;spacingRight=5;fontColor=#312D2A;fillColor=#F5F4F2;strokeColor=#9E9892;" vertex="1" parent="p18OMniudlgOb_beyLV6-1">
          <mxGeometry x="-43.55555555555556" width="176.63955555555557" height="530" as="geometry" />
        </mxCell>
        <mxCell id="p18OMniudlgOb_beyLV6-64" value="" style="group" vertex="1" connectable="0" parent="p18OMniudlgOb_beyLV6-1">
          <mxGeometry x="387.1604938271605" y="25.238095238095237" width="470" height="479.5238095238095" as="geometry" />
        </mxCell>
        <mxCell id="p18OMniudlgOb_beyLV6-65" value="&lt;b&gt;&lt;font&gt;VCN&lt;/font&gt;&lt;/b&gt;" style="whiteSpace=wrap;html=1;strokeWidth=2;dashed=1;align=left;fontFamily=Oracle Sans;verticalAlign=top;fillColor=none;fontColor=#AE562C;strokeColor=#AE562C;perimeterSpacing=0;fontSize=12;spacingLeft=5;" vertex="1" parent="p18OMniudlgOb_beyLV6-64">
          <mxGeometry x="-30" y="12.62" width="500" height="466.9" as="geometry" />
        </mxCell>
        <mxCell id="p18OMniudlgOb_beyLV6-66" value="" style="shape=image;verticalLabelPosition=bottom;verticalAlign=top;imageAspect=0;aspect=fixed;image=data:image/svg+xml,PHN2ZyB4bWxucz0iaHR0cDovL3d3dy53My5vcmcvMjAwMC9zdmciIHhtbG5zOnhsaW5rPSJodHRwOi8vd3d3LnczLm9yZy8xOTk5L3hsaW5rIiB2ZXJzaW9uPSIxLjEiIGlkPSJMYXllcl8xIiB4PSIwcHgiIHk9IjBweCIgdmlld0JveD0iMCAwIDQzLjUgNDIiIHN0eWxlPSJlbmFibGUtYmFja2dyb3VuZDpuZXcgMCAwIDQzLjUgNDI7IiB4bWw6c3BhY2U9InByZXNlcnZlIiB3aWR0aD0iNDMuNSIgaGVpZ2h0PSI0MiI+JiN4YTs8Zz4mI3hhOwk8Zz4mI3hhOwkJPHBhdGggc3R5bGU9ImZpbGw6I0ZGRkZGRjsiIGQ9Ik0zMS4yLDQxLjVjLTIuOCwwLTUuMy0yLTUuOS00LjhoLTcuMWMtMC42LDIuNy0zLDQuOC01LjksNC44Yy0zLjMsMC02LTIuNy02LTYmIzEwOyYjOTsmIzk7JiM5O2MwLTIuMSwxLjItNC4xLDMtNS4ybC0yLjItNi43Yy0wLjIsMC0wLjQsMC0wLjYsMGMtMy4zLDAtNi0yLjctNi02YzAtMy4zLDIuNy02LDYtNmMxLjUsMCwyLjksMC41LDQsMS42TDE2LjMsOSYjMTA7JiM5OyYjOTsmIzk7Yy0wLjMtMC44LTAuNS0xLjYtMC41LTIuNWMwLTMuMywyLjctNiw2LTZzNiwyLjcsNiw2YzAsMC44LTAuMiwxLjctMC41LDIuNWw1LjcsNC4yYzEuMS0xLDIuNS0xLjYsNC0xLjZjMy4zLDAsNiwyLjcsNiw2JiMxMDsmIzk7JiM5OyYjOTtzLTIuNyw2LTYsNmMtMC4yLDAtMC40LDAtMC42LDBsLTIuMiw2LjdjMS44LDEuMSwzLDMuMSwzLDUuMkMzNy4yLDM4LjgsMzQuNSw0MS41LDMxLjIsNDEuNXoiLz4mI3hhOwkJPHBhdGggc3R5bGU9ImZpbGw6I0ZGRkZGRjsiIGQ9Ik0yMS43LDFjMywwLDUuNSwyLjUsNS41LDUuNWMwLDAuOS0wLjIsMS44LTAuNywyLjZsNi40LDQuN2MxLTEuMSwyLjQtMS43LDQtMS43JiMxMDsmIzk7JiM5OyYjOTtjMywwLDUuNSwyLjUsNS41LDUuNWMwLDMtMi41LDUuNS01LjUsNS41Yy0wLjMsMC0wLjcsMC0xLTAuMWwtMi41LDcuNWMxLjgsMC45LDMuMSwyLjgsMy4xLDVjMCwzLTIuNSw1LjUtNS41LDUuNSYjMTA7JiM5OyYjOTsmIzk7Yy0yLjgsMC01LjEtMi4xLTUuNS00LjhoLTcuOWMtMC40LDIuNy0yLjcsNC44LTUuNSw0LjhjLTMsMC01LjUtMi41LTUuNS01LjVjMC0yLjIsMS4zLTQuMSwzLjEtNUw3LjUsMjNjLTAuMywwLjEtMC43LDAuMS0xLDAuMSYjMTA7JiM5OyYjOTsmIzk7Yy0zLDAtNS41LTIuNS01LjUtNS41czIuNS01LjUsNS41LTUuNWMxLjYsMCwzLDAuNyw0LDEuN2w2LjQtNC43Yy0wLjQtMC44LTAuNy0xLjctMC43LTIuNkMxNi4yLDMuNSwxOC43LDEsMjEuNywxIE0yMS43LDAmIzEwOyYjOTsmIzk7JiM5O2MtMy42LDAtNi41LDIuOS02LjUsNi41YzAsMC44LDAuMSwxLjYsMC40LDIuM2wtNS4xLDMuN2MtMS4xLTAuOS0yLjYtMS40LTQtMS40QzIuOSwxMS4xLDAsMTQsMCwxNy42czIuOSw2LjUsNi41LDYuNSYjMTA7JiM5OyYjOTsmIzk7YzAuMSwwLDAuMiwwLDAuMywwbDEuOSw2Yy0xLjgsMS4yLTIuOSwzLjItMi45LDUuNGMwLDMuNiwyLjksNi41LDYuNSw2LjVjMi45LDAsNS41LTIsNi4zLTQuOGg2LjNjMC44LDIuOCwzLjMsNC44LDYuMyw0LjgmIzEwOyYjOTsmIzk7JiM5O2MzLjYsMCw2LjUtMi45LDYuNS02LjVjMC0yLjItMS4xLTQuMi0yLjktNS40bDEuOS02YzAuMSwwLDAuMiwwLDAuMywwYzMuNiwwLDYuNS0yLjksNi41LTYuNWMwLTMuNi0yLjktNi41LTYuNS02LjUmIzEwOyYjOTsmIzk7JiM5O2MtMS41LDAtMi45LDAuNS00LjEsMS40bC01LjEtMy43YzAuMy0wLjcsMC40LTEuNSwwLjQtMi4zQzI4LjMsMi45LDI1LjMsMCwyMS43LDBMMjEuNywweiIvPiYjeGE7CTwvZz4mI3hhOwk8Zz4mI3hhOwkJPHBhdGggc3R5bGU9ImZpbGw6I0JCNTAxQzsiIGQ9Ik0zNywxMi4xYy0xLjYsMC0zLDAuNy00LDEuN2wtNi40LTQuN2MwLjQtMC44LDAuNy0xLjcsMC43LTIuNmMwLTMtMi41LTUuNS01LjUtNS41JiMxMDsmIzk7JiM5OyYjOTtzLTUuNSwyLjUtNS41LDUuNWMwLDAuOSwwLjIsMS44LDAuNywyLjZsLTYuNCw0LjdjLTEtMS0yLjQtMS43LTQtMS43Yy0zLDAtNS41LDIuNS01LjUsNS41czIuNSw1LjUsNS41LDUuNWMwLjMsMCwwLjcsMCwxLTAuMSYjMTA7JiM5OyYjOTsmIzk7bDIuNCw3LjVjLTEuOCwwLjktMy4xLDIuOC0zLjEsNWMwLDMsMi41LDUuNSw1LjUsNS41YzIuOCwwLDUuMS0yLjEsNS41LTQuOGg3LjljMC40LDIuNywyLjcsNC44LDUuNSw0LjhjMywwLDUuNS0yLjUsNS41LTUuNSYjMTA7JiM5OyYjOTsmIzk7YzAtMi4yLTEuMy00LjEtMy4xLTVMMzYsMjNjMC4zLDAuMSwwLjcsMC4xLDEsMC4xYzMsMCw1LjUtMi41LDUuNS01LjVTNDAsMTIuMSwzNywxMi4xeiBNMzEuMiwzOS41Yy0yLjIsMC00LTEuOC00LTQmIzEwOyYjOTsmIzk7JiM5O2MwLTIuMiwxLjgtNCw0LTRzNCwxLjgsNCw0QzM1LjIsMzcuNywzMy40LDM5LjUsMzEuMiwzOS41eiBNMTcuOCwzNC44Yy0wLjItMS4zLTAuOC0yLjQtMS43LTMuM2wzLTQuMmMwLjgsMC40LDEuNywwLjcsMi42LDAuNyYjMTA7JiM5OyYjOTsmIzk7YzAuOSwwLDEuOC0wLjIsMi42LTAuN2wzLDQuMmMtMC45LDAuOC0xLjUsMi0xLjcsMy4zSDE3Ljh6IE04LjMsMzUuNWMwLTIuMiwxLjgtNCw0LTRzNCwxLjgsNCw0YzAsMi4yLTEuOCw0LTQsNCYjMTA7JiM5OyYjOTsmIzk7UzguMywzNy43LDguMywzNS41eiBNNi41LDEzLjVjMi4yLDAsNCwxLjgsNCw0cy0xLjgsNC00LDRzLTQtMS44LTQtNFM0LjMsMTMuNSw2LjUsMTMuNXogTTE3LjcsNi41YzAtMi4yLDEuOC00LDQtNHM0LDEuOCw0LDQmIzEwOyYjOTsmIzk7JiM5O3MtMS44LDQtNCw0UzE3LjcsOC43LDE3LjcsNi41eiBNMzEuNiwxOC41bC00LjksMS42Yy0wLjgtMS42LTIuNC0yLjgtNC4yLTMuMVYxMmMxLjMtMC4yLDIuNC0wLjgsMy4yLTEuN2w2LjQsNC43JiMxMDsmIzk7JiM5OyYjOTtjLTAuNCwwLjgtMC43LDEuNy0wLjcsMi42QzMxLjUsMTcuOSwzMS41LDE4LjIsMzEuNiwxOC41eiBNMjUuOCwyMi41YzAsMi4yLTEuOCw0LTQsNHMtNC0xLjgtNC00czEuOC00LDQtNFMyNS44LDIwLjIsMjUuOCwyMi41eiYjMTA7JiM5OyYjOTsmIzk7IE0yMSwxMlYxN2MtMS45LDAuMy0zLjUsMS40LTQuMiwzLjFsLTQuOS0xLjZjMC4xLTAuMywwLjEtMC42LDAuMS0xYzAtMC45LTAuMi0xLjgtMC43LTIuNmw2LjQtNC43QzE4LjYsMTEuMiwxOS43LDExLjgsMjEsMTJ6JiMxMDsmIzk7JiM5OyYjOTsgTTExLjUsMTkuOWw0LjksMS42Yy0wLjEsMC4zLTAuMSwwLjYtMC4xLDFjMCwxLjYsMC43LDMsMS43LDRsLTMsNC4yYy0wLjgtMC40LTEuNy0wLjctMi42LTAuN2MtMC4zLDAtMC43LDAtMSwwLjFsLTIuNC03LjUmIzEwOyYjOTsmIzk7JiM5O0MxMCwyMiwxMC45LDIxLjEsMTEuNSwxOS45eiBNMzEuMiwzMGMtMC45LDAtMS44LDAuMi0yLjYsMC43bC0zLTQuMmMxLjEtMSwxLjctMi40LDEuNy00YzAtMC4zLDAtMC43LTAuMS0xbDQuOS0xLjYmIzEwOyYjOTsmIzk7JiM5O2MwLjUsMS4xLDEuNSwyLDIuNiwyLjZsLTIuNSw3LjVDMzEuOCwzMCwzMS41LDMwLDMxLjIsMzB6IE0zMywxNy42YzAtMi4yLDEuOC00LDQtNHM0LDEuOCw0LDRzLTEuOCw0LTQsNFMzMywxOS44LDMzLDE3LjZ6Ii8+JiN4YTsJPC9nPiYjeGE7PC9nPiYjeGE7PC9zdmc+;dashed=1;dashPattern=1 1;strokeColor=#bb511c;strokeWidth=3;fontColor=#AE562C;fontFamily=Helvetica;fontSize=12;fillColor=#FCFBFA;" vertex="1" parent="p18OMniudlgOb_beyLV6-64">
          <mxGeometry x="350.8641975308642" y="-12.619047619047619" width="55.364615384615384" height="52.849002849002844" as="geometry" />
        </mxCell>
        <mxCell id="p18OMniudlgOb_beyLV6-67" value="" style="group" vertex="1" connectable="0" parent="p18OMniudlgOb_beyLV6-64">
          <mxGeometry x="36.3" y="70" width="403.7" height="384.29" as="geometry" />
        </mxCell>
        <mxCell id="p18OMniudlgOb_beyLV6-68" value="&lt;b&gt;Subnet&lt;/b&gt;&lt;br&gt;&lt;font color=&quot;#312d2a&quot;&gt;0.0.0.0/00&lt;/font&gt;" style="whiteSpace=wrap;html=1;strokeWidth=1;dashed=1;align=left;fontFamily=Oracle Sans;verticalAlign=top;fillColor=none;fontColor=#AE562C;perimeterSpacing=0;strokeColor=#AE562C;fontSize=12;spacingLeft=5;" vertex="1" parent="p18OMniudlgOb_beyLV6-67">
          <mxGeometry width="403.7" height="384.29" as="geometry" />
        </mxCell>
        <mxCell id="p18OMniudlgOb_beyLV6-69" value="" style="shape=image;verticalLabelPosition=bottom;verticalAlign=top;imageAspect=0;aspect=fixed;image=data:image/svg+xml,PHN2ZyB4bWxucz0iaHR0cDovL3d3dy53My5vcmcvMjAwMC9zdmciIHhtbG5zOnhsaW5rPSJodHRwOi8vd3d3LnczLm9yZy8xOTk5L3hsaW5rIiB2ZXJzaW9uPSIxLjEiIGlkPSJMYXllcl8xIiB4PSIwcHgiIHk9IjBweCIgdmlld0JveD0iMCAwIDMyLjM5OTk5NzcxMTE4MTY0IDQyLjE5OTk5Njk0ODI0MjE5IiBzdHlsZT0iZW5hYmxlLWJhY2tncm91bmQ6bmV3IDAgMCAzMi4zIDQyLjI7IiB4bWw6c3BhY2U9InByZXNlcnZlIiB3aWR0aD0iMzIuMzk5OTk3NzExMTgxNjQiIGhlaWdodD0iNDIuMTk5OTk2OTQ4MjQyMTkiPiYjeGE7PGc+JiN4YTsJPGc+JiN4YTsJCTxwYXRoIHN0eWxlPSJmaWxsOiNGRkZGRkY7IiBkPSJNMTUuOCw0MS41QzgsMzguNiw0LjMsMzMuNiwyLjUsMjkuOGMtMi00LjMtMi03LjktMi04LjFWNy4zbDE1LjctNi43bDE1LjYsNi43djE0LjUmIzEwOyYjOTsmIzk7JiM5O2MwLDAuNi0wLjIsMTQuMi0xNS4xLDE5LjdsLTAuNCwwLjJMMTUuOCw0MS41eiIvPiYjeGE7CQk8cGF0aCBzdHlsZT0iZmlsbDojRkZGRkZGOyIgZD0iTTE2LjIsMS4xbDE1LjEsNi41djE0LjJjMCwwLjYtMC4yLDEzLjgtMTQuOCwxOS4ybC0wLjMsMC4xTDE2LDQxQzguMywzOC4yLDQuNywzMy4zLDMsMjkuNiYjMTA7JiM5OyYjOTsmIzk7Yy0xLjktNC4xLTItNy43LTItNy44VjcuNkwxNi4yLDEuMSBNMTYuMiwwbC0wLjQsMC4yTDAuNiw2LjdMMCw2Ljl2MC43djE0LjJjMCwwLjIsMCwzLjksMi4xLDguM2MxLjgsMy44LDUuNiw5LDEzLjYsMTEuOSYjMTA7JiM5OyYjOTsmIzk7bDAuMywwLjFsMC4zLDAuMWwwLjMtMC4xbDAuMy0wLjFjMTUuMy01LjYsMTUuNS0xOS42LDE1LjUtMjAuMlY3LjZWNi45bC0wLjYtMC4zTDE2LjYsMC4yTDE2LjIsMEwxNi4yLDB6Ii8+JiN4YTsJPC9nPiYjeGE7CTxnPiYjeGE7CQk8cGF0aCBzdHlsZT0iZmlsbDpub25lOyIgZD0iTTIuNSw4LjZ2MTMuMmMwLDAuMSwwLDMuNCwxLjgsNy4yYzIuMyw0LjksNi4zLDguNCwxMS45LDEwLjVjMTMuNC01LjEsMTMuNi0xNy4yLDEzLjYtMTcuN1Y4LjYmIzEwOyYjOTsmIzk7JiM5O0wxNi4yLDIuN0wyLjUsOC42eiBNMTYuMSwyOC4zSDd2LTEuNWg5LjFWMjguM3ogTTE2LjEsMjEuNUg3VjIwaDkuMVYyMS41eiBNMTYuMSwxNC4ySDd2LTEuNWg5LjFWMTQuMnogTTIwLjIsMTIuN2wxLjIsMS4ybDMtMyYjMTA7JiM5OyYjOTsmIzk7bDEsMWwtNCw0bC0yLjItMi4yTDIwLjIsMTIuN3ogTTI0LjgsMjIuMmwtMSwxbC0xLjUtMS41bC0xLjUsMS41bC0xLTFsMS41LTEuNWwtMS41LTEuNWwxLTFsMS41LDEuNWwxLjUtMS41bDEsMWwtMS41LDEuNSYjMTA7JiM5OyYjOTsmIzk7TDI0LjgsMjIuMnogTTIwLjIsMjYuOGwxLjIsMS4ybDMtM2wxLDFsLTQsNGwtMi4yLTIuMkwyMC4yLDI2Ljh6Ii8+JiN4YTsJCTxwYXRoIHN0eWxlPSJmaWxsOiNCQjUwMUM7IiBkPSJNMTYuMiwxLjFMMSw3LjZ2MTQuMmMwLDAuMSwwLDMuNywyLDcuOGMxLjcsMy43LDUuNCw4LjYsMTMsMTEuNGwwLjMsMC4xbDAuMy0wLjEmIzEwOyYjOTsmIzk7JiM5O2MxNC42LTUuNCwxNC44LTE4LjcsMTQuOC0xOS4yVjcuNkwxNi4yLDEuMXogTTI5LjgsMjEuOGMwLDAuNS0wLjIsMTIuNi0xMy42LDE3LjdDMTAuNiwzNy40LDYuNiwzMy45LDQuMywyOSYjMTA7JiM5OyYjOTsmIzk7Yy0xLjgtMy45LTEuOC03LjEtMS44LTcuMlY4LjZsMTMuNy01LjlsMTMuNiw1LjlWMjEuOHoiLz4mI3hhOwkJPHJlY3QgeD0iNyIgeT0iMTIuNyIgc3R5bGU9ImZpbGw6I0JCNTAxQzsiIHdpZHRoPSI5LjEiIGhlaWdodD0iMS41Ii8+JiN4YTsJCTxwb2x5Z29uIHN0eWxlPSJmaWxsOiNCQjUwMUM7IiBwb2ludHM9IjI1LjQsMTIgMjQuMywxMSAyMS40LDEzLjkgMjAuMiwxMi43IDE5LjEsMTMuOCAyMS40LDE2ICYjOTsmIzk7Ii8+JiN4YTsJCTxyZWN0IHg9IjciIHk9IjIwIiBzdHlsZT0iZmlsbDojQkI1MDFDOyIgd2lkdGg9IjkuMSIgaGVpZ2h0PSIxLjUiLz4mI3hhOwkJPHBvbHlnb24gc3R5bGU9ImZpbGw6I0JCNTAxQzsiIHBvaW50cz0iMjMuOCwxOC4xIDIyLjMsMTkuNyAyMC43LDE4LjEgMTkuNywxOS4yIDIxLjIsMjAuNyAxOS43LDIyLjIgMjAuNywyMy4zIDIyLjMsMjEuOCAmIzEwOyYjOTsmIzk7JiM5OzIzLjgsMjMuMyAyNC44LDIyLjIgMjMuMywyMC43IDI0LjgsMTkuMiAmIzk7JiM5OyIvPiYjeGE7CQk8cmVjdCB4PSI3IiB5PSIyNi44IiBzdHlsZT0iZmlsbDojQkI1MDFDOyIgd2lkdGg9IjkuMSIgaGVpZ2h0PSIxLjUiLz4mI3hhOwkJPHBvbHlnb24gc3R5bGU9ImZpbGw6I0JCNTAxQzsiIHBvaW50cz0iMjUuNCwyNi4xIDI0LjMsMjUuMSAyMS40LDI4IDIwLjIsMjYuOCAxOS4xLDI3LjkgMjEuNCwzMC4xICYjOTsmIzk7Ii8+JiN4YTsJPC9nPiYjeGE7PC9nPiYjeGE7PC9zdmc+;dashed=1;dashPattern=1 1;strokeColor=#bb511c;strokeWidth=3;fontColor=#AE562C;fontFamily=Helvetica;fontSize=12;fillColor=#FCFBFA;" vertex="1" parent="p18OMniudlgOb_beyLV6-67">
          <mxGeometry x="309.50333333333333" y="-24.529148936170213" width="22.967068093525505" height="30.140509309088586" as="geometry" />
        </mxCell>
        <mxCell id="p18OMniudlgOb_beyLV6-70" value="" style="shape=image;verticalLabelPosition=bottom;verticalAlign=top;imageAspect=0;aspect=fixed;image=data:image/svg+xml,PHN2ZyB4bWxucz0iaHR0cDovL3d3dy53My5vcmcvMjAwMC9zdmciIHhtbG5zOnhsaW5rPSJodHRwOi8vd3d3LnczLm9yZy8xOTk5L3hsaW5rIiB2ZXJzaW9uPSIxLjEiIGlkPSJMYXllcl8xIiB4PSIwcHgiIHk9IjBweCIgdmlld0JveD0iMCAwIDQyIDQyIiBzdHlsZT0iZW5hYmxlLWJhY2tncm91bmQ6bmV3IDAgMCA0MiA0MjsiIHhtbDpzcGFjZT0icHJlc2VydmUiIHdpZHRoPSI0MiIgaGVpZ2h0PSI0MiI+JiN4YTs8Zz4mI3hhOwk8Zz4mI3hhOwkJPHJlY3QgeD0iMC41IiB5PSIwLjUiIHN0eWxlPSJmaWxsOiNGRkZGRkY7IiB3aWR0aD0iNDEiIGhlaWdodD0iNDEiLz4mI3hhOwkJPHBhdGggc3R5bGU9ImZpbGw6I0ZGRkZGRjsiIGQ9Ik00MSwxdjQwSDFWMUg0MSBNNDIsMGgtMUgxSDB2MXY0MHYxaDFoNDBoMXYtMVYxVjBMNDIsMHoiLz4mI3hhOwk8L2c+JiN4YTsJPGc+JiN4YTsJCTxwYXRoIHN0eWxlPSJmaWxsOiNCQjUwMUM7IiBkPSJNMSwxdjQwaDQwVjFIMXogTTM5LjUsMTMuOEgxMy42VjIuNWgyNS45VjEzLjh6IE0yLjUsMjguMmg5LjZ2MTEuNEgyLjVWMjguMnogTTEyLjEsMi41djExLjRIMi41JiMxMDsmIzk7JiM5OyYjOTtWMi41SDEyLjF6IE0xMi4xLDE1LjN2MTEuNEgyLjVWMTUuM0gxMi4xeiBNMTMuNiwzOS41VjI4LjJoMjUuOXYxMS40SDEzLjZ6IE0xMy42LDI2LjdWMTUuM2gyNS45djExLjRIMTMuNnoiLz4mI3hhOwkJPHBvbHlnb24gc3R5bGU9ImZpbGw6I0JCNTAxQzsiIHBvaW50cz0iMTUsMTIuMyAxNi43LDEyLjMgMTcuNiwxMC42IDE4LjUsMTIuMyAyMC4xLDEyLjMgMTguNiw5LjYgMjAsNy4xIDE4LjQsNy4xIDE3LjYsOC43ICYjMTA7JiM5OyYjOTsmIzk7MTYuNyw3LjEgMTUuMSw3LjEgMTYuNiw5LjYgJiM5OyYjOTsiLz4mI3hhOwkJPHJlY3QgeD0iMjAuOSIgeT0iMTEuMSIgc3R5bGU9ImZpbGw6I0JCNTAxQzsiIHdpZHRoPSIxLjQiIGhlaWdodD0iMS4yIi8+JiN4YTsJCTxwb2x5Z29uIHN0eWxlPSJmaWxsOiNCQjUwMUM7IiBwb2ludHM9IjI1LDEyLjMgMjUuOSwxMC42IDI2LjgsMTIuMyAyOC40LDEyLjMgMjYuOCw5LjYgMjguMyw3LjEgMjYuOCw3LjEgMjUuOSw4LjcgMjUsNy4xICYjMTA7JiM5OyYjOTsmIzk7MjMuNCw3LjEgMjQuOSw5LjYgMjMuNCwxMi4zICYjOTsmIzk7Ii8+JiN4YTsJCTxyZWN0IHg9IjI4LjkiIHk9IjExLjEiIHN0eWxlPSJmaWxsOiNCQjUwMUM7IiB3aWR0aD0iMS40IiBoZWlnaHQ9IjEuMiIvPiYjeGE7CQk8cG9seWdvbiBzdHlsZT0iZmlsbDojQkI1MDFDOyIgcG9pbnRzPSIzMi43LDEyLjMgMzMuNiwxMC42IDM0LjYsMTIuMyAzNi4xLDEyLjMgMzQuNiw5LjYgMzYsNy4xIDM0LjUsNy4xIDMzLjYsOC43IDMyLjcsNy4xICYjMTA7JiM5OyYjOTsmIzk7MzEuMiw3LjEgMzIuNiw5LjYgMzEuMSwxMi4zICYjOTsmIzk7Ii8+JiN4YTsJCTxyZWN0IHg9IjM2LjYiIHk9IjExLjEiIHN0eWxlPSJmaWxsOiNCQjUwMUM7IiB3aWR0aD0iMS40IiBoZWlnaHQ9IjEuMiIvPiYjeGE7CQk8cG9seWdvbiBzdHlsZT0iZmlsbDojQkI1MDFDOyIgcG9pbnRzPSIyMCwyMC4xIDE4LjQsMjAuMSAxNy42LDIxLjcgMTYuNywyMC4xIDE1LjEsMjAuMSAxNi42LDIyLjYgMTUsMjUuMyAxNi43LDI1LjMgMTcuNiwyMy42ICYjMTA7JiM5OyYjOTsmIzk7MTguNSwyNS4zIDIwLjEsMjUuMyAxOC42LDIyLjYgJiM5OyYjOTsiLz4mI3hhOwkJPHJlY3QgeD0iMjAuOSIgeT0iMjQiIHN0eWxlPSJmaWxsOiNCQjUwMUM7IiB3aWR0aD0iMS40IiBoZWlnaHQ9IjEuMiIvPiYjeGE7CQk8cG9seWdvbiBzdHlsZT0iZmlsbDojQkI1MDFDOyIgcG9pbnRzPSIyOC4zLDIwLjEgMjYuOCwyMC4xIDI1LjksMjEuNyAyNSwyMC4xIDIzLjQsMjAuMSAyNC45LDIyLjYgMjMuNCwyNS4zIDI1LDI1LjMgMjUuOSwyMy42ICYjMTA7JiM5OyYjOTsmIzk7MjYuOCwyNS4zIDI4LjQsMjUuMyAyNi44LDIyLjYgJiM5OyYjOTsiLz4mI3hhOwkJPHJlY3QgeD0iMjguOSIgeT0iMjQiIHN0eWxlPSJmaWxsOiNCQjUwMUM7IiB3aWR0aD0iMS40IiBoZWlnaHQ9IjEuMiIvPiYjeGE7CQk8cG9seWdvbiBzdHlsZT0iZmlsbDojQkI1MDFDOyIgcG9pbnRzPSIzNiwyMC4xIDM0LjUsMjAuMSAzMy42LDIxLjcgMzIuNywyMC4xIDMxLjIsMjAuMSAzMi42LDIyLjYgMzEuMSwyNS4zIDMyLjcsMjUuMyAmIzEwOyYjOTsmIzk7JiM5OzMzLjYsMjMuNiAzNC42LDI1LjMgMzYuMSwyNS4zIDM0LjYsMjIuNiAmIzk7JiM5OyIvPiYjeGE7CQk8cmVjdCB4PSIzNi42IiB5PSIyNCIgc3R5bGU9ImZpbGw6I0JCNTAxQzsiIHdpZHRoPSIxLjQiIGhlaWdodD0iMS4yIi8+JiN4YTsJCTxwb2x5Z29uIHN0eWxlPSJmaWxsOiNCQjUwMUM7IiBwb2ludHM9IjIwLDMyLjkgMTguNCwzMi45IDE3LjYsMzQuNCAxNi43LDMyLjkgMTUuMSwzMi45IDE2LjYsMzUuMyAxNSwzOCAxNi43LDM4IDE3LjYsMzYuMyAmIzEwOyYjOTsmIzk7JiM5OzE4LjUsMzggMjAuMSwzOCAxOC42LDM1LjQgJiM5OyYjOTsiLz4mI3hhOwkJPHJlY3QgeD0iMjAuOSIgeT0iMzYuOCIgc3R5bGU9ImZpbGw6I0JCNTAxQzsiIHdpZHRoPSIxLjQiIGhlaWdodD0iMS4yIi8+JiN4YTsJCTxwb2x5Z29uIHN0eWxlPSJmaWxsOiNCQjUwMUM7IiBwb2ludHM9IjI4LjMsMzIuOSAyNi44LDMyLjkgMjUuOSwzNC40IDI1LDMyLjkgMjMuNCwzMi45IDI0LjksMzUuMyAyMy40LDM4IDI1LDM4IDI1LjksMzYuMyAmIzEwOyYjOTsmIzk7JiM5OzI2LjgsMzggMjguNCwzOCAyNi44LDM1LjQgJiM5OyYjOTsiLz4mI3hhOwkJPHJlY3QgeD0iMjguOSIgeT0iMzYuOCIgc3R5bGU9ImZpbGw6I0JCNTAxQzsiIHdpZHRoPSIxLjQiIGhlaWdodD0iMS4yIi8+JiN4YTsJCTxwb2x5Z29uIHN0eWxlPSJmaWxsOiNCQjUwMUM7IiBwb2ludHM9IjM2LDMyLjkgMzQuNSwzMi45IDMzLjYsMzQuNCAzMi43LDMyLjkgMzEuMiwzMi45IDMyLjYsMzUuMyAzMS4xLDM4IDMyLjcsMzggMzMuNiwzNi4zICYjMTA7JiM5OyYjOTsmIzk7MzQuNiwzOCAzNi4xLDM4IDM0LjYsMzUuNCAmIzk7JiM5OyIvPiYjeGE7CQk8cmVjdCB4PSIzNi42IiB5PSIzNi44IiBzdHlsZT0iZmlsbDojQkI1MDFDOyIgd2lkdGg9IjEuNCIgaGVpZ2h0PSIxLjIiLz4mI3hhOwk8L2c+JiN4YTs8L2c+JiN4YTs8L3N2Zz4=;fontColor=#312D2A;strokeColor=#AE562C;fontFamily=Helvetica;fontSize=12;fillColor=#FCFBFA;" vertex="1" parent="p18OMniudlgOb_beyLV6-67">
          <mxGeometry x="347.38384999999994" y="-24.529148936170213" width="30.140509309088586" height="30.140509309088586" as="geometry" />
        </mxCell>
        <mxCell id="p18OMniudlgOb_beyLV6-71" value="&lt;font&gt;&lt;b&gt;Availability Domain&lt;/b&gt;&lt;/font&gt;" style="whiteSpace=wrap;html=1;strokeWidth=1;align=center;fontFamily=Oracle Sans;verticalAlign=top;rounded=1;arcSize=8;fillColor=#DFDCD8;strokeColor=#9E9892;fontColor=#312D2A;fontSize=12;" vertex="1" parent="p18OMniudlgOb_beyLV6-67">
          <mxGeometry x="30" y="50.42" width="319.87" height="318.08" as="geometry" />
        </mxCell>
        <mxCell id="p18OMniudlgOb_beyLV6-72" value="" style="group" vertex="1" connectable="0" parent="p18OMniudlgOb_beyLV6-67">
          <mxGeometry x="56.540333333332725" y="213.2019863013702" width="113.03599999999997" height="143.4507191780822" as="geometry" />
        </mxCell>
        <mxCell id="p18OMniudlgOb_beyLV6-73" style="vsdxID=37;fillColor=none;gradientColor=none;strokeColor=none;spacingTop=-3;spacingBottom=-3;spacingLeft=-3;spacingRight=-3;points=[];labelBackgroundColor=none;rounded=0;html=1;whiteSpace=wrap;" vertex="1" parent="p18OMniudlgOb_beyLV6-72">
          <mxGeometry width="113.03599999999997" height="110.54917808219182" as="geometry" />
        </mxCell>
        <mxCell id="p18OMniudlgOb_beyLV6-74" style="vsdxID=38;fillColor=none;gradientColor=none;strokeColor=none;spacingTop=-3;spacingBottom=-3;spacingLeft=-3;spacingRight=-3;points=[];labelBackgroundColor=none;rounded=0;html=1;whiteSpace=wrap;" vertex="1" parent="p18OMniudlgOb_beyLV6-73">
          <mxGeometry width="113.03599999999997" height="110.54917808219182" as="geometry" />
        </mxCell>
        <mxCell id="p18OMniudlgOb_beyLV6-75" style="vsdxID=39;fillColor=#FFFFFF;gradientColor=none;shape=stencil(lZPRDoIwDEW/Zq9LWUHCs+J/EAVZRCATFP/eYYdsAzW+td2922mzMtxey6zNmYBrp5pzfpfHrmS4Y0LIusyV7HTEMGW4LRqVn1TT10fK22xUjtGluY03DOSLOEajScCDCknC482rsif9oVdkCEggeIjGEfgWGASVwChMmsQchVGgqzBpEvLQfrWStUUJDuKb+QMhuHgz8ERnteDyTnDWVBzcVTiNvnFnCN/o9Cyi2CUEFy8Ab3xWB+hLfOJVxFnuI3+AnA1L6kEsG/HJB1zOxkNfBf39Hf/V62D++4WsKlod+9zfFV2iPcP0CQ==);strokeColor=none;spacingTop=-3;spacingBottom=-3;spacingLeft=-3;spacingRight=-3;points=[];labelBackgroundColor=none;rounded=0;html=1;whiteSpace=wrap;" vertex="1" parent="p18OMniudlgOb_beyLV6-74">
          <mxGeometry x="1.3456666666666663" y="1.3160616438356167" width="110.34466666666668" height="107.9170547945206" as="geometry" />
        </mxCell>
        <mxCell id="p18OMniudlgOb_beyLV6-76" style="vsdxID=40;fillColor=#FFFFFF;gradientColor=none;shape=stencil(lZXRdoIwDIafprc9aUMpvXb6Hp6JgzMmHsSNvf1gLbQNCHpX4h/88iehDHe34njNmYRb29Sf+U95aguGb0zK8lLkTdn2J4Z7hrtz3eQfTX2/nOzz9Tgoh9NX/T28obN5BjmqIUvCr41Ijtl/4GD17/fGJgiXoXhiXIYgKdBJJ9IcR5ELJVy6SIdzkQulPMHwz6vyEsIGCRN+JlZpgxRfgFEEN6jJV5ClhDfwCqlqEbgvR8S8VE95e5c0wdU8lTFu77cmtIprEdMGIs+v9GPYIGG5GZQ1SBCzHstZPXI2LDhzCZdnkIzB5sy+qt/aCXihxbBuWaZiyyD2C6hZdAghdmp9YSAi21wWYHTyREInb+J3EQHANro5Sh41R8U7TeQLGy2Ih56BQgXbPJWCVPPcenj9c9thDNcp/U5O3Ry5Um5EjErsXPjorLu5Nrr9wV8E57Kq7D0S/k4vjj5kLx3c/wE=);strokeColor=none;spacingTop=-3;spacingBottom=-3;spacingLeft=-3;spacingRight=-3;points=[];labelBackgroundColor=none;rounded=0;html=1;whiteSpace=wrap;" vertex="1" parent="p18OMniudlgOb_beyLV6-74">
          <mxGeometry width="113.03599999999997" height="110.54917808219182" as="geometry" />
        </mxCell>
        <mxCell id="p18OMniudlgOb_beyLV6-77" style="vsdxID=41;fillColor=none;gradientColor=none;strokeColor=none;spacingTop=-3;spacingBottom=-3;spacingLeft=-3;spacingRight=-3;points=[];labelBackgroundColor=none;rounded=0;html=1;whiteSpace=wrap;" vertex="1" parent="p18OMniudlgOb_beyLV6-73">
          <mxGeometry x="2.6913333333333327" y="2.6321232876712335" width="107.65333333333332" height="105.28493150684935" as="geometry" />
        </mxCell>
        <mxCell id="p18OMniudlgOb_beyLV6-78" style="vsdxID=42;fillColor=#2d5967;gradientColor=none;shape=stencil(lZXLcoMwDEW/xlvGWDzidZr8R6YhhSmFDCEt+ftCbbAkB+Lu/LgyR/IVFrC/ladrIZS89V37WfxU574U8CaUqpqy6Kp+HAk4CNhf2q746Np7czbz62lSTqOv9ns6YTBxOo3SeIpS8mFW5N/saMR11SBxEqlkXft+78zJsdmMI62tOsZyOSgyfdipsrtAd2H5drpOJgmWzra4JIXSO0qFsOcVKSkaqgNQyVO4scZ5RgCZnBPqXSRjSukYONRMueQBXAAOY6OETv+84B6kno9bIBVF1LnLm175AL774KX9XniVGTtzNVzJ38so88puneRSSr2UxihbqK20nCqsszw9hwWvuzCImkV5wmkpKlKE2QQFhPkEBdiVhEPyhoPFWesdB5uUfstxfcDlIwx01+z6EwqKFUF/rgCf/jtgHLj//aWqa/Nc4H3+PoxL5m2Bwy8=);strokeColor=none;spacingTop=-3;spacingBottom=-3;spacingLeft=-3;spacingRight=-3;points=[];labelBackgroundColor=none;rounded=0;html=1;whiteSpace=wrap;" vertex="1" parent="p18OMniudlgOb_beyLV6-77">
          <mxGeometry width="107.65333333333332" height="105.28493150684935" as="geometry" />
        </mxCell>
        <mxCell id="p18OMniudlgOb_beyLV6-79" style="vsdxID=43;fillColor=#2d5967;gradientColor=none;shape=stencil(pZLRDsIgDEW/hlcCNG68z/kfS8aEiLCwOfXvhTTGTSPqfOul57YNuQSqQTe9IoINY/AHdTbtqAlsiRDGaRXMGCsCNYGq80Htgz+5FnXfJDJVRz+lCRf0seQQ7IqKM9Q7RK1xM/TeXAVn0JVgdn0WXf4AByrKJV5QuXk/Wxa0hP8MEijPGF5P+tnw4aQvDLF4hKYz1mLm5v3nkMUnDCjUNw==);strokeColor=none;spacingTop=-3;spacingBottom=-3;spacingLeft=-3;spacingRight=-3;points=[];labelBackgroundColor=none;rounded=0;html=1;whiteSpace=wrap;" vertex="1" parent="p18OMniudlgOb_beyLV6-77">
          <mxGeometry x="10.76533333333333" y="69.7512671232877" width="29.604666666666667" height="22.373047945205485" as="geometry" />
        </mxCell>
        <mxCell id="p18OMniudlgOb_beyLV6-80" style="vsdxID=44;fillColor=#2d5967;gradientColor=none;shape=stencil(pZLdDsIgDIWfhlsC1Bm8nvM9lowJEWFhmz9vL6QxbhpZnHc99DttQw6Bstd1p4hg/RD8SV1NM2gCeyKEcVoFM8SKQEWgbH1Qx+BH16Du6kSm6uwvacINfSw5BLuj4gz1AVFr3AR9NlfBGXQlmF2fRec/sKFSzOktlcX30buCcvmfQQLlGcPHRb/yCwct87F4BaY11mLepv33gMUnDCdUDw==);strokeColor=none;spacingTop=-3;spacingBottom=-3;spacingLeft=-3;spacingRight=-3;points=[];labelBackgroundColor=none;rounded=0;html=1;whiteSpace=wrap;" vertex="1" parent="p18OMniudlgOb_beyLV6-77">
          <mxGeometry x="10.76533333333333" y="10.528493150684934" width="83.43133333333333" height="22.373047945205485" as="geometry" />
        </mxCell>
        <mxCell id="p18OMniudlgOb_beyLV6-81" style="vsdxID=45;fillColor=#2d5967;gradientColor=none;shape=stencil(pZLLDoMgEEW/hi0BplRdW/sfJmIhpWKQvv6+kklT7cPWupsL5w7D5BLIO122igjWBe/26myqoAlsiBCm0cqb0FcECgJ57bzaeXdsKtRtGclYHdwpdrigjzMWPYJdUaPaImpNM0D/BO8vvEWzjEqxBJ+AZ3xtEh0vLBM0XY/gFCiXn3snlK8W8VzSBCZ28jLQbMOXiX4w9MUjYbWxFgM6vH9OZH+EaYbiBg==);strokeColor=none;spacingTop=-3;spacingBottom=-3;spacingLeft=-3;spacingRight=-3;points=[];labelBackgroundColor=none;rounded=0;html=1;whiteSpace=wrap;" vertex="1" parent="p18OMniudlgOb_beyLV6-77">
          <mxGeometry x="10.76533333333333" y="40.79791095890411" width="56.51799999999999" height="22.373047945205485" as="geometry" />
        </mxCell>
        <mxCell id="p18OMniudlgOb_beyLV6-82" style="vsdxID=46;fillColor=#2d5967;gradientColor=none;shape=stencil(nZBLCoAwDERPk31tjuDnHoLVBmsrtf5ub0sQRdzobiZ5ycAA5pOuRwVSTMG7Xq3UBA1YgJRktfIUogIsAfPWedV5N9uG/VgnMqnBLenDxneZEOlGip09u4pRQ/aG/gTPhFf0Gf8J/otGcdXRkjHc5n3/rC+OuHosDw==);strokeColor=none;spacingTop=-3;spacingBottom=-3;spacingLeft=-3;spacingRight=-3;points=[];labelBackgroundColor=none;rounded=0;html=1;whiteSpace=wrap;" vertex="1" parent="p18OMniudlgOb_beyLV6-77">
          <mxGeometry x="72.66600000000001" y="42.113972602739736" width="20.184999999999995" height="18.42486301369864" as="geometry" />
        </mxCell>
        <mxCell id="p18OMniudlgOb_beyLV6-83" style="vsdxID=47;fillColor=#2d5967;gradientColor=none;shape=stencil(nZBLCoAwDERPk31tjuDnHoLVBmsrtf5ub0sQRdzobiZ5ycAA5pOuRwVSTMG7Xq3UBA1YgJRktfIUogIsAfPWedV5N9uG/VgnMqnBLenDxneZEOlGip09u4pRQ/aG/gTPhFf0Gf8J/otGcdXRkjHc5n3/rC+OuHosDw==);strokeColor=none;spacingTop=-3;spacingBottom=-3;spacingLeft=-3;spacingRight=-3;points=[];labelBackgroundColor=none;rounded=0;html=1;whiteSpace=wrap;" vertex="1" parent="p18OMniudlgOb_beyLV6-77">
          <mxGeometry x="72.66600000000001" y="71.06732876712331" width="20.184999999999995" height="18.42486301369864" as="geometry" />
        </mxCell>
        <mxCell id="p18OMniudlgOb_beyLV6-84" style="vsdxID=48;fillColor=#2d5967;gradientColor=none;shape=stencil(nZBLCoAwDERPk31tjuDnHoLVBmsrtf5ub0sQRdzobiZ5ycAA5pOuRwVSTMG7Xq3UBA1YgJRktfIUogIsAfPWedV5N9uG/VgnMqnBLenDxneZEOlGip09u4pRQ/aG/gTPhFf0Gf8J/otGcdXRkjHc5n3/rC+OuHosDw==);strokeColor=none;spacingTop=-3;spacingBottom=-3;spacingLeft=-3;spacingRight=-3;points=[];labelBackgroundColor=none;rounded=0;html=1;whiteSpace=wrap;" vertex="1" parent="p18OMniudlgOb_beyLV6-77">
          <mxGeometry x="47.098333333333336" y="71.06732876712331" width="20.184999999999995" height="18.42486301369864" as="geometry" />
        </mxCell>
        <mxCell id="p18OMniudlgOb_beyLV6-85" value="&lt;div style=&quot;font-size: 1px&quot;&gt;&lt;p style=&quot;align:center;margin-left:0;margin-right:0;margin-top:0px;margin-bottom:0px;text-indent:0;valign:middle;direction:ltr;&quot;&gt;&lt;font style=&quot;font-size:16.93px;font-family:Oracle Sans;color:#000000;direction:ltr;letter-spacing:0px;line-height:120%;opacity:1&quot;&gt;Functions&lt;br/&gt;&lt;/font&gt;&lt;/p&gt;&lt;/div&gt;" style="verticalAlign=middle;align=center;vsdxID=50;fillColor=none;gradientColor=none;shape=stencil(nZBLDoAgDERP0z3SIyjew0SURgSD+Lu9kMZoXLhwN9O+tukAlrNpJg1SzDH4QW/URgNYgZTkjA4UkwJUgGXng+6DX1zLfmoymdXo17xh5zmRJ6Q42BWCfc2oJfdAr+Yv+AP9Cb7OJ3H/2JG1HNGz/84klThPVCc=);strokeColor=none;spacingTop=-3;spacingBottom=-3;spacingLeft=-3;spacingRight=-3;points=[];labelBackgroundColor=none;rounded=0;html=1;whiteSpace=wrap;" vertex="1" parent="p18OMniudlgOb_beyLV6-72">
          <mxGeometry x="5.382666666666665" y="117.1294863013699" width="100.925" height="26.321232876712337" as="geometry" />
        </mxCell>
        <mxCell id="p18OMniudlgOb_beyLV6-86" value="" style="group" vertex="1" connectable="0" parent="p18OMniudlgOb_beyLV6-67">
          <mxGeometry x="219.43033333333273" y="104.76582191780852" width="113.03599999999997" height="171.08801369863014" as="geometry" />
        </mxCell>
        <mxCell id="p18OMniudlgOb_beyLV6-87" style="vsdxID=53;fillColor=none;gradientColor=none;strokeColor=none;spacingTop=-3;spacingBottom=-3;spacingLeft=-3;spacingRight=-3;points=[];labelBackgroundColor=none;rounded=0;html=1;whiteSpace=wrap;" vertex="1" parent="p18OMniudlgOb_beyLV6-86">
          <mxGeometry width="113.03599999999997" height="110.54917808219179" as="geometry" />
        </mxCell>
        <mxCell id="p18OMniudlgOb_beyLV6-88" style="vsdxID=54;fillColor=none;gradientColor=none;strokeColor=none;spacingTop=-3;spacingBottom=-3;spacingLeft=-3;spacingRight=-3;points=[];labelBackgroundColor=none;rounded=0;html=1;whiteSpace=wrap;" vertex="1" parent="p18OMniudlgOb_beyLV6-87">
          <mxGeometry width="113.03599999999997" height="110.54917808219179" as="geometry" />
        </mxCell>
        <mxCell id="p18OMniudlgOb_beyLV6-89" style="vsdxID=55;fillColor=#FFFFFF;gradientColor=none;shape=stencil(lZPRDoIwDEW/Zq9LWUHCs+J/EAVZRCATFP/eYYdsAzW+td2922mzMtxey6zNmYBrp5pzfpfHrmS4Y0LIusyV7HTEMGW4LRqVn1TT10fK22xUjtGluY03DOSLOEajScCDCknC482rsif9oVdkCEggeIjGEfgWGASVwChMmsQchVGgqzBpEvLQfrWStUUJDuKb+QMhuHgz8ERnteDyTnDWVBzcVTiNvnFnCN/o9Cyi2CUEFy8Ab3xWB+hLfOJVxFnuI3+AnA1L6kEsG/HJB1zOxkNfBf39Hf/V62D++4WsKlod+9zfFV2iPcP0CQ==);strokeColor=none;spacingTop=-3;spacingBottom=-3;spacingLeft=-3;spacingRight=-3;points=[];labelBackgroundColor=none;rounded=0;html=1;whiteSpace=wrap;" vertex="1" parent="p18OMniudlgOb_beyLV6-88">
          <mxGeometry x="1.3456666666666663" y="1.3160616438356163" width="110.34466666666668" height="107.91705479452057" as="geometry" />
        </mxCell>
        <mxCell id="p18OMniudlgOb_beyLV6-90" style="vsdxID=56;fillColor=#FFFFFF;gradientColor=none;shape=stencil(lZXRdoIwDIafprc9aUMpvXb6Hp6JgzMmHsSNvf1gLbQNCHpX4h/88iehDHe34njNmYRb29Sf+U95aguGb0zK8lLkTdn2J4Z7hrtz3eQfTX2/nOzz9Tgoh9NX/T28obN5BjmqIUvCr41Ijtl/4GD17/fGJgiXoXhiXIYgKdBJJ9IcR5ELJVy6SIdzkQulPMHwz6vyEsIGCRN+JlZpgxRfgFEEN6jJV5ClhDfwCqlqEbgvR8S8VE95e5c0wdU8lTFu77cmtIprEdMGIs+v9GPYIGG5GZQ1SBCzHstZPXI2LDhzCZdnkIzB5sy+qt/aCXihxbBuWaZiyyD2C6hZdAghdmp9YSAi21wWYHTyREInb+J3EQHANro5Sh41R8U7TeQLGy2Ih56BQgXbPJWCVPPcenj9c9thDNcp/U5O3Ry5Um5EjErsXPjorLu5Nrr9wV8E57Kq7D0S/k4vjj5kLx3c/wE=);strokeColor=none;spacingTop=-3;spacingBottom=-3;spacingLeft=-3;spacingRight=-3;points=[];labelBackgroundColor=none;rounded=0;html=1;whiteSpace=wrap;" vertex="1" parent="p18OMniudlgOb_beyLV6-88">
          <mxGeometry width="113.03599999999997" height="110.54917808219179" as="geometry" />
        </mxCell>
        <mxCell id="p18OMniudlgOb_beyLV6-91" style="vsdxID=57;fillColor=none;gradientColor=none;strokeColor=none;spacingTop=-3;spacingBottom=-3;spacingLeft=-3;spacingRight=-3;points=[];labelBackgroundColor=none;rounded=0;html=1;whiteSpace=wrap;" vertex="1" parent="p18OMniudlgOb_beyLV6-87">
          <mxGeometry x="2.6913333333333327" y="2.6321232876712326" width="107.65333333333332" height="105.28493150684932" as="geometry" />
        </mxCell>
        <mxCell id="p18OMniudlgOb_beyLV6-92" style="vsdxID=58;fillColor=#2d5967;gradientColor=none;shape=stencil(lZXLcoMwDEW/xlvGWDzidZr8R6YhhSmFDCEt+ftCbbAkB+Lu/LgyR/IVFrC/ladrIZS89V37WfxU574U8CaUqpqy6Kp+HAk4CNhf2q746Np7czbz62lSTqOv9ns6YTBxOo3SeIpS8mFW5N/saMR11SBxEqlkXft+78zJsdmMI62tOsZyOSgyfdipsrtAd2H5drpOJgmWzra4JIXSO0qFsOcVKSkaqgNQyVO4scZ5RgCZnBPqXSRjSukYONRMueQBXAAOY6OETv+84B6kno9bIBVF1LnLm175AL774KX9XniVGTtzNVzJ38so88puneRSSr2UxihbqK20nCqsszw9hwWvuzCImkV5wmkpKlKE2QQFhPkEBdiVhEPyhoPFWesdB5uUfstxfcDlIwx01+z6EwqKFUF/rgCf/jtgHLj//aWqa/Nc4H3+PoxL5m2Bwy8=);strokeColor=none;spacingTop=-3;spacingBottom=-3;spacingLeft=-3;spacingRight=-3;points=[];labelBackgroundColor=none;rounded=0;html=1;whiteSpace=wrap;" vertex="1" parent="p18OMniudlgOb_beyLV6-91">
          <mxGeometry width="107.65333333333332" height="105.28493150684932" as="geometry" />
        </mxCell>
        <mxCell id="p18OMniudlgOb_beyLV6-93" style="vsdxID=59;fillColor=#2d5967;gradientColor=none;shape=stencil(pZJbDsIgFERXwy+hQBW/a91Hk1IhIjQUX7sXcmNsNaWx/s1wz32EDGLVoJpeIkqG4N1J3nQbFGJ7RKm2SnodokKsRqzqnJdH7y62Bd83iUzq7K5pwh36SOqg5AGuIOAPgBptR+iruArOoCvB7PosOv0BjkUxpTdYlPOjdxyXf/GCY7qd57/u+ZVfuGeZj+Idl04bA2kb1z/jFZ8gmqx+Ag==);strokeColor=none;spacingTop=-3;spacingBottom=-3;spacingLeft=-3;spacingRight=-3;points=[];labelBackgroundColor=none;rounded=0;html=1;whiteSpace=wrap;" vertex="1" parent="p18OMniudlgOb_beyLV6-91">
          <mxGeometry x="14.802333333333333" y="67.11914383561644" width="78.04866666666666" height="22.373047945205478" as="geometry" />
        </mxCell>
        <mxCell id="p18OMniudlgOb_beyLV6-94" style="vsdxID=60;fillColor=#2d5967;gradientColor=none;shape=stencil(jVLRDoMgDPwaXg2UOeezc/9hJk4ypwZ107+fpCRClxnf2nLH9eCYzIa66BUDPoyme6qPLseaySsD0G2tjB7XismcyazqjHqYbmpL7PvCIm316t72hhl5MbcU4Au2gmN/Q+x9MggWeJwk0Vk4gggZfAYyWGAjgcNIinGDUxql6Z7yxnADgEheQmV/OzfioW5MZHfNWoUkFCVWiVF/JRkijtokJv2ng9+t6Iv/s0l+tdHt4QSsxRadSjcNJs8/p1FbRxhTmX8B);strokeColor=none;spacingTop=-3;spacingBottom=-3;spacingLeft=-3;spacingRight=-3;points=[];labelBackgroundColor=none;rounded=0;html=1;whiteSpace=wrap;" vertex="1" parent="p18OMniudlgOb_beyLV6-91">
          <mxGeometry x="76.703" y="76.33157534246577" width="5.382666666666665" height="5.264246575342465" as="geometry" />
        </mxCell>
        <mxCell id="p18OMniudlgOb_beyLV6-95" style="vsdxID=61;fillColor=#2d5967;gradientColor=none;shape=stencil(pZLbDsIgEES/Zl8JZW3E51r/o0mpEBEa2nr5e0Fi2qrpRd92Z8+QCRnArJFFLYDRpnX2JK6qbCXgHhhTRgqnWj8B5oBZZZ04OtuZMu51Ecgwne0lvHCLvh0nnAcXo/eo0Od2iLBWZgDT38CETqCv4yJ4VdoZePwPHEmyGcFBSSdyp2SL/xl65avhM9Jqw0ykBQY/9NWplNaxecP7e9W8FGuK+QM=);strokeColor=none;spacingTop=-3;spacingBottom=-3;spacingLeft=-3;spacingRight=-3;points=[];labelBackgroundColor=none;rounded=0;html=1;whiteSpace=wrap;" vertex="1" parent="p18OMniudlgOb_beyLV6-91">
          <mxGeometry x="14.802333333333333" y="14.476678082191784" width="22.87633333333333" height="22.373047945205478" as="geometry" />
        </mxCell>
        <mxCell id="p18OMniudlgOb_beyLV6-96" style="vsdxID=62;fillColor=#2d5967;gradientColor=none;shape=stencil(pZJJDoMwDEVP422UxGXYU3oPJEKJmhIUoMPtm8iqCnSE7vzj920r+oBZVxetAsm73tmDOuuyrwG3IKVuauV07yvAHDCrrFN7Z4emJN0WgQzV0Z7ChAv5BOfBI/mVNKkdoUY3I3QleN/wEp2vXwSvRac/kG6YTCZwikxEH2bHLI3/M4iIJfje8HzSYsOXk34w+OIRmkobQ5kb9+ch808UUMxv);strokeColor=none;spacingTop=-3;spacingBottom=-3;spacingLeft=-3;spacingRight=-3;points=[];labelBackgroundColor=none;rounded=0;html=1;whiteSpace=wrap;" vertex="1" parent="p18OMniudlgOb_beyLV6-91">
          <mxGeometry x="41.715666666666664" y="14.476678082191784" width="22.87633333333333" height="22.373047945205478" as="geometry" />
        </mxCell>
        <mxCell id="p18OMniudlgOb_beyLV6-97" style="vsdxID=63;fillColor=#2d5967;gradientColor=none;shape=stencil(pZLbDsIgEES/Zl8JZW3E51r/o0mpEBEa2nr5e0Fi2qrpRd92Z8+QCRnArJFFLYDRpnX2JK6qbCXgHhhTRgqnWj8B5oBZZZ04OtuZMu51Ecgwne0lvHCLvh0nnAcXo/eo0Od2iLBWZgDT38CETqCv4yJ4VdoZePwPHEmyGcFBSSdyp2SL/xl65avhM9Jqw0ykBQY/9NWplNaxecP7e9W8FGuK+QM=);strokeColor=none;spacingTop=-3;spacingBottom=-3;spacingLeft=-3;spacingRight=-3;points=[];labelBackgroundColor=none;rounded=0;html=1;whiteSpace=wrap;" vertex="1" parent="p18OMniudlgOb_beyLV6-91">
          <mxGeometry x="14.802333333333333" y="40.79791095890411" width="22.87633333333333" height="22.373047945205478" as="geometry" />
        </mxCell>
        <mxCell id="p18OMniudlgOb_beyLV6-98" style="vsdxID=64;fillColor=#2d5967;gradientColor=none;shape=stencil(pZJJDoMwDEVP422UxGXYU3oPJEKJmhIUoMPtm8iqCnSE7vzj920r+oBZVxetAsm73tmDOuuyrwG3IKVuauV07yvAHDCrrFN7Z4emJN0WgQzV0Z7ChAv5BOfBI/mVNKkdoUY3I3QleN/wEp2vXwSvRac/kG6YTCZwikxEH2bHLI3/M4iIJfje8HzSYsOXk34w+OIRmkobQ5kb9+ch808UUMxv);strokeColor=none;spacingTop=-3;spacingBottom=-3;spacingLeft=-3;spacingRight=-3;points=[];labelBackgroundColor=none;rounded=0;html=1;whiteSpace=wrap;" vertex="1" parent="p18OMniudlgOb_beyLV6-91">
          <mxGeometry x="41.715666666666664" y="40.79791095890411" width="22.87633333333333" height="22.373047945205478" as="geometry" />
        </mxCell>
        <mxCell id="p18OMniudlgOb_beyLV6-99" style="vsdxID=65;fillColor=#2d5967;gradientColor=none;shape=stencil(pZJJDoMwDEVP422UxGXYU3oPJEKJmhIUoMPtm8iqCnSE7vzj920r+oBZVxetAsm73tmDOuuyrwG3IKVuauV07yvAHDCrrFN7Z4emJN0WgQzV0Z7ChAv5BOfBI/mVNKkdoUY3I3QleN/wEp2vXwSvRac/kG6YTCZwikxEH2bHLI3/M4iIJfje8HzSYsOXk34w+OIRmkobQ5kb9+ch808UUMxv);strokeColor=none;spacingTop=-3;spacingBottom=-3;spacingLeft=-3;spacingRight=-3;points=[];labelBackgroundColor=none;rounded=0;html=1;whiteSpace=wrap;" vertex="1" parent="p18OMniudlgOb_beyLV6-91">
          <mxGeometry x="68.62899999999999" y="14.476678082191784" width="22.87633333333333" height="22.373047945205478" as="geometry" />
        </mxCell>
        <mxCell id="p18OMniudlgOb_beyLV6-100" style="vsdxID=66;fillColor=#2d5967;gradientColor=none;shape=stencil(pZJJDoMwDEVP422UxGXYU3oPJEKJmhIUoMPtm8iqCnSE7vzj920r+oBZVxetAsm73tmDOuuyrwG3IKVuauV07yvAHDCrrFN7Z4emJN0WgQzV0Z7ChAv5BOfBI/mVNKkdoUY3I3QleN/wEp2vXwSvRac/kG6YTCZwikxEH2bHLI3/M4iIJfje8HzSYsOXk34w+OIRmkobQ5kb9+ch808UUMxv);strokeColor=none;spacingTop=-3;spacingBottom=-3;spacingLeft=-3;spacingRight=-3;points=[];labelBackgroundColor=none;rounded=0;html=1;whiteSpace=wrap;" vertex="1" parent="p18OMniudlgOb_beyLV6-91">
          <mxGeometry x="68.62899999999999" y="40.79791095890411" width="22.87633333333333" height="22.373047945205478" as="geometry" />
        </mxCell>
        <mxCell id="p18OMniudlgOb_beyLV6-101" value="&lt;div style=&quot;&quot;&gt;&lt;p style=&quot;margin: 0px; text-indent: 0px; direction: ltr;&quot;&gt;&lt;font face=&quot;Oracle Sans&quot;&gt;&lt;span style=&quot;font-size: 16.93px;&quot;&gt;Destination Server&lt;/span&gt;&lt;/font&gt;&lt;/p&gt;&lt;/div&gt;" style="verticalAlign=middle;align=center;vsdxID=68;fillColor=none;gradientColor=none;shape=stencil(nZBLDoAgDERP0z3SIyjew0SURgSD+Lu9kMZoXLhwN9O+tukAlrNpJg1SzDH4QW/URgNYgZTkjA4UkwJUgGXng+6DX1zLfmoymdXo17xh5zmRJ6Q42BWCfc2oJfdAr+Yv+AP9Cb7OJ3H/2JG1HNGz/84klThPVCc=);strokeColor=none;spacingTop=-3;spacingBottom=-3;spacingLeft=-3;spacingRight=-3;points=[];labelBackgroundColor=none;rounded=0;html=1;whiteSpace=wrap;" vertex="1" parent="p18OMniudlgOb_beyLV6-86">
          <mxGeometry x="5.382666666666665" y="117.12948630136987" width="102.27066666666666" height="53.95852739726028" as="geometry" />
        </mxCell>
        <mxCell id="p18OMniudlgOb_beyLV6-113" value="" style="group" vertex="1" connectable="0" parent="p18OMniudlgOb_beyLV6-64">
          <mxGeometry x="-77.16049382716051" y="334.7619047619048" width="173" height="13.360000000000127" as="geometry" />
        </mxCell>
        <mxCell id="p18OMniudlgOb_beyLV6-114" value="" style="endArrow=open;html=1;startArrow=none;startFill=0;endFill=0;rounded=0;fontFamily=Oracle Sans;fontSize=10.5;fontColor=#312D2A;labelBackgroundColor=none;strokeColor=#312D2A;exitX=0.5;exitY=0;exitDx=0;exitDy=0;endSize=6;elbow=vertical;" edge="1" parent="p18OMniudlgOb_beyLV6-113">
          <mxGeometry x="23" y="-80.11000000000013" width="50" height="50" as="geometry">
            <mxPoint y="7.889999999999873" as="sourcePoint" />
            <mxPoint x="173" y="8" as="targetPoint" />
          </mxGeometry>
        </mxCell>
        <mxCell id="p18OMniudlgOb_beyLV6-115" value="Invokes Function" style="whiteSpace=wrap;html=1;align=center;fontFamily=Oracle Sans;verticalAlign=middle;fillColor=#FFFFFF;rounded=0;arcSize=8;strokeColor=none;fontColor=#312D2A;fontSize=10;" vertex="1" parent="p18OMniudlgOb_beyLV6-113">
          <mxGeometry x="43" width="85" height="13.36" as="geometry" />
        </mxCell>
        <mxCell id="p18OMniudlgOb_beyLV6-42" style="vsdxID=35;fillColor=none;gradientColor=none;strokeColor=none;spacingTop=-3;spacingBottom=-3;spacingLeft=-3;spacingRight=-3;points=[];labelBackgroundColor=none;rounded=0;html=1;whiteSpace=wrap;" vertex="1" parent="p18OMniudlgOb_beyLV6-1">
          <mxGeometry x="-6.051604938272158" y="75.71428571428572" width="101.62962962962962" height="78.23809523809523" as="geometry" />
        </mxCell>
        <mxCell id="p18OMniudlgOb_beyLV6-43" style="vsdxID=36;fillColor=#FFFFFF;gradientColor=none;shape=stencil(nVjLctswDPwaXzEEwec5bf8j0ziNp2mScZI2/vvCI4kUlxFd92bJoFZYAMuldnLz+nD7st9Z8/p2fP65/3O4e3vYyZedtYenh/3x8Ka/dvJ1Jzf3z8f9j+Pz+9PddP1ye448//r1/Pv8hI9pnTmvsOY0XbGZrr9NoY+Hp83QYCmHdfD39+P0YJ7Dydh5xXzHZ/LzrQ87A5Jxc9B8xweyMgfJdMtSWoLmO14ojbAdBQFsJkktdiQTAFvfmVtsfeUM2CXoU5ZYyLmGqasXuEzWj9JjQxm4dZFsaPNLS4FKfs6Rhfxix60z5IfogSKAS6DcYgfy3GKLVtEjtgVspbulCrEj5dhiW08Mhc0EeWubxdRiM1NKLThnEhnS7ogBnUN5TGlpJSO1+OwLHR8VrMP35Ib4OggxA74n8S2+EhJgpvSVfISZUiahsTnNVdyAF0PiWngltgxrrbOJLbyOo4fSa1TmFl77dX78Fr5Q9NB4lhjxhYJv8bU9OXf4AXpP8oX0mQIOnWJxC6/NFwHe6cCEHbJvgX2XKDX4rUooO0ubnzYWdO2S63xVlVhEufBlcFqcrzJd6WIP7+vIDTX4XC7u+FqkrsBr04NSuNobBT8So0yVqE/5ckxA17Xx5oIIi/KPOqhqCv0gnyihygik58naNr1zH11gN8MWp4Pfz0IEKdBtuZRAyvuE2KKrrKRxcX3pmkWJdIPF3GMZj1PZcy1MovIsIITaWXYErm3EIARcFaZOnYfcTYvsVw5F1hEbsGo6ANW0kGpdUm4huVM+NUEhXJevWi0HtV7xuOy4rgbZviQzVNAeubbWIRB2munmWIMYar3qRynvmIDxS30elHRAX83PAs51fmrvJcjdp7JZrbxOO+StKKxXFBUJA5UOF6K77BxFyE7XREwvdKXVEbCwp4RYfUfVaDvGzx27qv4CMhJN19c6XUsli5vj6jfrnhbiNluxWsLTxoLO/5m6XXB5FZz9kGpalTDX8eXBgsilZgyoAAKe+1wqaESlxXfI2Ijn7X14mtKUDCiu6gYeabSeEc0XFz9WKmXrrFbvF4feM6q8oOaqLoAIxZWvqd6XIf9kih9biZAdGv8kZHrva2OLnzwhfKgWbYFPPXxezqEb8NksbmftfR1UP1c7uvK+CRpPo9D6a/nDsPxZuhOtejIH6WuU670vmjnFFzRzZnGXW/hc9GZl5hJsAklPUKDDOp1o5pJqB+qwHj0a/luhWK+oe/fAzeWVTGws6DK0Vb4Y11SGfen58tGA6xgsDMeuw3xhaws/Vfle8ANZPFwaA+jlsFtOliVkkRsdncEmV+Pb63/4BvT/ofqjfpG6Pzw+Th+01v/jFyy9NX39kq9/AQ==);strokeColor=none;spacingTop=-3;spacingBottom=-3;spacingLeft=-3;spacingRight=-3;points=[];labelBackgroundColor=none;rounded=0;html=1;whiteSpace=wrap;" vertex="1" parent="p18OMniudlgOb_beyLV6-42">
          <mxGeometry width="100.41975308641977" height="75.71428571428572" as="geometry" />
        </mxCell>
        <mxCell id="p18OMniudlgOb_beyLV6-44" style="vsdxID=37;fillColor=#FFFFFF;gradientColor=none;shape=stencil(pVrblhQ3DPyafdXx/fJM4D84YQl7QljOsiTw95EzY8td6nbPkLdlsKdatypJPQ/+zbdP778+Pjjz7fXl+c/Hf54+vH568L89OPf05dPjy9Mr//Xg3z74Nx+fXx7/eHn+/uXD5d9f37eT7a+/nv9u3/Djci9Uqq7dcubn5RNHvvz3wbvL+d+/v1wu2Mv/R0+2Xm/YcSVfPvnhrocS+XQ9dP3IU/HXQ/56qFCN10PXjxLFsAJPth8Y4JVc2IInT75uwa0nA+gpkLNbdJvJuyV8JAPwzlIC+EAZ4Nkui/CeIsB705/oCN6Rc1t4z1YU8D2HtIDvM6W0xY+ZrAP8SmWD//npy5Qq841r8gSy+fgCP27K6wvKwtAjMCxsd8BCDkMNWwv5VHbg4Uxha2CIlP0SvlBJAJ8oQ35lM6I54AsBerYE4Y3m2FWZUcrGVdvT+KCZqynCg9YRnvGglhxUIZtTwE1VJWLwFOrST5ky+skMWhhhSlTzFt4neUgJk9/Ce0dmnSWczpAlrpAB69kwA1nipmqROPWPOj6XdEwn3h8uu35kywjI8H6iYLf4jWAC4Fc55fHUAX5xFMD++ZuvYCWSR/zpKa9gJVOMd9pfqjCc1Z69glUrBOt0lPw4Fe+NP9/BMp0TS/ANpN+cpH7YMhjn1vRvPstb/KmuuvuDouG5RP0IpQH3r3iCYzp8+kunOyvtn6+U6vL8TiQq8NC4IoFgBodEiG54fSQCkzMyZqCw7EVqlhTv8IkSFGId5PxTJDICD7RDAN/0Kxx7a74xHie54wtWSPPXzqsHQn9YRcuzpb0IRy8w3DH5rNeAKMetwYhKkuYo96oYBDDAJV86/xlFyeu8tYEKqOe95xdVxNQKLfJam+1U+MfabB1hC6OkmR2RsIU55SYqQM07ylxUQe4Ic6FwLzEXlX87usxWWSDGHV1u/oF6PNUl9nyCFNzRZTsp3rEuO6N08VSXecaJYP+OLvMwEBBf6zI7bnDxrfbzAFH9Fn9HlzmKHvsirct+at5vDb8H8B1R5u/ApmBHlNmQAPRzmvgt+UALtCg7eaKFKLtpxL1BlN00NdxCEDyyIj/I+ND9ZFXz2iYRGCLZmwGYMgwZPQyS0JmMWDC/+0gR/TRmN4HniRBq5GQkDI62nrr3PM+oJ+bxAejN+DF7izns0xzAk7QFDuD8RQY0ZyWwsyGA/QADFeyLbU9uwY7CZcI/zi3B0/iawT+OKuIXVf9VVSAX5cgS2c0sPc8VCuTLQyqkNedwgp58Wh517KqwcSkFWXK6xDpbei3rlR/aQ0oZMMvJF3ZKHwk2udQAo4YusUcBzWrhM6blqVQthNNa8gDesht8amNPjWOmsMCoTRWRKrwe8yJpeNVMmK45x6WEas5fE0FN2UUVe5kyWofJ9wWJ0vbJaz+nDPaIfCHX4wuNDOv6wp6FqATjzswXFvaJnG8W+iWWAjTQ9dnsOL4Fsout7puFCR7Sq20Twb8tMBDecLJr4wM4w1vVq/mwt0OoaLuXAu2EwTW7hneicNK+JfS9HdvliatVr1hlH9WLq1JYCoWDwDO5A0+zCQbX2Ikc9olBJiop7PUWnU2o2KcGxdW2Kp3iUxn2yPzc2St8v0w8PpBAJBsZAbFZCcfUp1vE56YU92elf9cRviFsVZnYgNeKWl6yqlSQqiJq3+MRz5aHhJxaRhc1VpeSTyMRt8BJZVyr5uV8zld0f57B6fJ0HbgK5YrRuDB2XSkOB8OdnjNBc97mfmjKWHor9LwsbgWa81CgKYQBftrXH1zQQQqQoO0KZEiQtr/vMsxYm4z6lFLrowQz9ZIapr1lX6TEziYD3ACyZkWzhT3ZZpmNg6xZLUTM/zh8usOq3JxBEzu9KJx2eij7zUlQJTXJd03eX8JzA487NL1AqU7N8C1B3Ba+7cmhSk9StWRhnRtTlUEK1PXOO6u2jMcmIgjv+GEWLkG5IbHLJqZ6qa7OK0W9k+VTAZY+bVTCeHEviW2i7eYd4Tu1bmu7E8R36p1dY2qYeqqR4bHXrzvpksv0AkfERL2MyWMPOy19HHBbiZJWne7Sif3Fq1emLKYBeL0Y4aFJzMH+XAjIqi0z13KWpEMSeAvmZy/vCaSXwb1LtuoHAaz4a/NTlXfBHb+qeT8Vlf6tCdrCJ73OYI5fV1/CfWcebeX0thrfA/Lsk6CTmE/drOhRvQfk3tyAUqSkdu5h/NJgYzxOp2vHRyG3zjsO11hJlkYD26q0Sw7T7mTWYkG4bzjbvXDyUwTbZXrmNRw/k5DotEhKIMXsKw86xClgl01y0v0aM1bCxGaqB3xmnx38DH0ql59Z4wdp7HthWTUdttABflbLh1jVbNr3u0fvkpJ6r2jV5iFqTTFb4J1N0qJVOVkL3XWY/5CfXH18+vz58out+f/xJ1r80eXnXf7tvw==);strokeColor=none;spacingTop=-3;spacingBottom=-3;spacingLeft=-3;spacingRight=-3;points=[];labelBackgroundColor=none;rounded=0;html=1;whiteSpace=wrap;" vertex="1" parent="p18OMniudlgOb_beyLV6-42">
          <mxGeometry width="101.62962962962962" height="78.23809523809523" as="geometry" />
        </mxCell>
        <mxCell id="p18OMniudlgOb_beyLV6-45" style="vsdxID=38;fillColor=#2d5967;gradientColor=none;shape=stencil(lVbLbhsxDPyavRKSqOc5Tf4jaJzaqGsHjtO6f19utZJWs42M3ta0qAGHw6EmfnjfP7/tJqPer5fz992vw8t1P/GXyZjDab+7HK7yNfHjxA+v58vu2+X8cXrJv9+e55Pz14/zz/mGW86ziayfs4z6nSMpUYp/I0854evHJWfofMAlMm5JWUJaqRy4mRzwkaJdziyhFEjr5RTnUPCU0nJqCSVNPozQoyNte/ToydgeX65xPXyIJVLQk2t1LCEvbLgRupCjdI/uFQF4ZaNgOzliATySgtKtoshDcE869uCsaf4NpdeOLiFjiFOPHy052+NrVxI/wQ+BPBQvpPKm8yH28EzR9OgiIR0AnZIegYtQne/BQXMsJ1KPrKq+CjKrTd2Wgh0hm6alVjV0nCkA59pS9MA5MffQQo0aVm0opgk7rn2PDmoTHQWQumqq5SpJN6xakTYgdCYPWnPEoQeXkdbcgwsTJa+gyxDz0GNmzUC3k1wDWmNfrmkukyiGHn9tcVxP9R53PJz+zxTvuagowqShi/oi+OaikqP7Cr2toSos4Q6EFZq/1HFK94bZkweGhXQHwo66Dng1E7kZfFzMxEKHpTVm2OEYiKF+y6QRf2WTzUwD2Elc1VL0LYlDfYsEi3NWgQuz2/o9LhJDKgL/Kx2WUCh3fca/3gxYNJsBk/7DGp2XHdDvwmaXCLt+2H5RbIBdEsWUe3RrNuqThjCsMnYbXxNy7XCLixdaNFVT7fvW9hY6uvAaAF/LXci+yNaM8MWTqnOtut/D6235Djo/H0Hl3XNWyWGYvNmyAdsTzN286mGZycDiC0a2GQ8fEbIADfpOaI7SdqlH32EC4v9hrBvbu2esmwT5aG/V18PxmJ+66//xbSuh/C7mxz8=);strokeColor=none;spacingTop=-3;spacingBottom=-3;spacingLeft=-3;spacingRight=-3;points=[];labelBackgroundColor=none;rounded=0;html=1;whiteSpace=wrap;" vertex="1" parent="p18OMniudlgOb_beyLV6-42">
          <mxGeometry x="67.75308641975307" y="12.619047619047619" width="24.19753086419753" height="25.238095238095237" as="geometry" />
        </mxCell>
        <mxCell id="p18OMniudlgOb_beyLV6-46" style="vsdxID=39;fillColor=#2d5967;gradientColor=none;shape=stencil(pVjJchw3DP2auaK4L2fH/g+XLUdTUSTXWE7kvw/a0yDYj9PLKDeJA/QjtgeAJ//hx+Pn7w8nZ368Xl7+evj3/PX18eT/ODl3fn58uJxf+a+T/3jyH769XB7+vLz8fP56/f/750ly+uvvl3+mL7xd9aolmyctZ35dT6yjmn6ffLoqPJ2fO4VSKN6rYO1SIVDwvcKXn5frneyskmn69bfKfGT5qF6P3twslcikWWo+spXmkzc/CwXKYRaajxybXDfhvdyvwTtHuQC8pZqX8M5TsoBvKAJ8E1qBz5UMwncfnrFyplgAvrvkDJYTuXSn+TlQDUv8zq8C7ylXcH4XIoF3VOoSfgj+MltYIwj4ofRiBUFdUxgMtOTz0kB2eQQDDZmwNDA2k8W+VChAeD1FtwWeEpUI3iUXluApDuCmJUUD9xLIBm7W/ZT4A2Xhpw3hyPF2S6dSyFtmRfZEWZoVW92LWTGTsUuzSqthMStG8n5pluW7b6Zs5PrAlHVkHcDbMWd9oz/BD5WqA/wmtYIfisbLjl+ewULSgLnxloIfKNo77Q9cZ0AZnWMFntMe+LILkaAbpV5/O/TLVPGVsnx1N698ouzWhdEsH6hAoXZlMNvg/dgGtKCkKtkI4EEvbl4BZ05A8I4AhHK5G0Kh1pYKAu6yVpNvcd8iNdawS6fu9kzHTA/XvdEzu4iv90zXcfvRpsG9JwD8jZ7JnzFuCX+jZ/KN4r1N0xalt/WmaRMlD/hj07TMQPZO+7nca13ij02To14gW240TWu1/x5rmqwRdnogzGRKFwd7ZlIEJdiKBEcugnmxHbXsoogjQaXN1DbDPMKh9dCvzdBaJiuhEg1QQJBZ9qaXzNJFZovYlIPeIz1cZGBC1ZATQwX6G+c7DqQ6SDeCp4y1tQceh+bC5VBxHiUsLEMBh2H9kFehdT9VSUrxE4oPVWjHVIkEHMjFlKAKGSmCn7gwsWEYIY81DuRZH6Nk2/rxpoSHgzt/2SEH86yAe0uSHna7Z3QaB3KQTbb+/4hPaVE23dGptLwBX3SzllK0h1CwE4eJ0ElzXisYp3tfm/EDFgxnAhBWbmNsQ08q5EHodnUXcktXofxw2aqVq5k8jm8B2TVoGUp5+2HQ4UzemV7j0LuZkgPkbeCCgDmLEz5BrEI3NXmUWuMXJ+OtJkr3ZZlVgw44brylbA88BpU77efdxWFzCwPB9QuUG4IkO5kdhvftZOElDtayvWSZdkOIVpe0ctmk40ibSwPEatpe7yyrxOG14KquYHV3xkyBNO0kJEuQTmDNV4UDbJW95uq7xF3aeyThPANHeF2dmiOqZqNwjqWCb1TdE4b2mrz9RhUJuZUXMViNShlWIzYM15PavXQca8vDm+FeX67MxkOBByiwGvSzui8gwdU4vmgF6btr8JyiOBbkIVgsVYFgpyEL8ZMOJcfGyF7jQDLKj+8S3h0kax32lH5Odk1qSJxu5BZX5BbDo6M8Ry/j61e3Igi8VxbV1anCQ02fhsfW6gOP3fyHPpV/Oz89XV/a+9/xaZ2Prs/y/uN/);strokeColor=none;spacingTop=-3;spacingBottom=-3;spacingLeft=-3;spacingRight=-3;points=[];labelBackgroundColor=none;rounded=0;html=1;whiteSpace=wrap;" vertex="1" parent="p18OMniudlgOb_beyLV6-42">
          <mxGeometry x="1.2098765432098764" y="34.07142857142857" width="98" height="41.642857142857146" as="geometry" />
        </mxCell>
        <mxCell id="p18OMniudlgOb_beyLV6-47" style="vsdxID=40;fillColor=#2d5967;gradientColor=none;shape=stencil(lZZNctswDIVPoy2GIPgDrtPkHpnEqT117YzjtMntA5UiKUJjZrqTYVKfADw8cqK7t/3j626y5u16Of/a/T08X/cT/ZisPZz2u8vhKk8T3U9093K+7H5ezu+n5/z79XFeOT/9Pv+Z3/CR97kELsy7rPnMkZQg8b/IQ97w9H7JOzAv8AmsX7YsITQmBz5sDgQGdsuaJZQiIC6rKIdigJSWVUsoIYQ4orMHdD2dA1jX8+U1vsdHLpFCT77lsYSCVMOP6FIcgz09GFDwWo3C9rLEKTiDUak7A0xDeADkHk4I82+Veu3oErIWKPV8duBdz0dfNt7gxwhBJS9FpU3nI/d4ArY9XSSEUdEh4QguQvWhhyvNkaxIPdlUfRUymU3eDqIbkW3TUstadZwgqpqjAw6q5kDUo6U0Zpi1BU6T7jiGnq7UJjqKSuqmqZaqJP0wawNoldAJgtKaB4o9XEYaqYdLJcq+QpchpqHHzJpR3U7yGqU1CuU1zWUScOz5a4ujuqr3uOPh9H+m+J2LiiJsGrpoAFbD3Pa0aXLN7YqwZEyVqKMBUv3FVGb11jCH+prPVvSorIwRqMdbefHGSlCNlDRmbCVi2Ull7whIyYsjRIUX3er+zvbPPd8z4NDH5ZuZen7wzaRb9lYfI3aj76jEJTY5FndsA1odxW7ELa03ylPmTJWRhua2VIsWhrnPTqroYsc93Ikdq8xZ7Et1nvzmEJPJ9nY42QyWtsnHnj+fWCp5Kas2VOR68Nfiy/1hOHfiRqhPcPlmlT/W46gpj6sYKn+1qvnq+BBf7ykNWWm6DTmr/MX4SXVfqqTKL4eZHRtrao0tXxQ31ydK+vq09qbbvrpxve98dbNBHtpV9eVwPOab7vp/fbWVUL4W0/0X);strokeColor=none;spacingTop=-3;spacingBottom=-3;spacingLeft=-3;spacingRight=-3;points=[];labelBackgroundColor=none;rounded=0;html=1;whiteSpace=wrap;" vertex="1" parent="p18OMniudlgOb_beyLV6-42">
          <mxGeometry x="8.469135802469134" y="12.619047619047619" width="24.19753086419753" height="25.238095238095237" as="geometry" />
        </mxCell>
        <mxCell id="p18OMniudlgOb_beyLV6-48" style="vsdxID=41;fillColor=#2d5967;gradientColor=none;shape=stencil(lZfbchsxCIafZm8ZJHSA6zR9j0zj1J66ccZxWvfty3YtyWJrub3blYW+BX5Anujhffv0tpk8vp+Oh2+bn7vn03aiT5P3u9ft5rg76dNEjxM9vByOm6/Hw8fr8/L+9jTvnJ++H37MJ5wXuyCQwmzl8deyIgLCf1Y+LwZfPo6LhVs2RIFAFxPXbNKydPbLUpLLlsu7ZMAL6EzLUs7gykGXJXEQh3CO4FMP5wTO9/B2TOVnBuKeLxHI9fwkQH7EV0+LG4WfEHzu+Q6xp0cs5zY6A+aeHhDymK6uGjq5v3kfXM/3vrpa+BwgcM93EcIIrwmLBs8QxCSeIRs6QZYerhoykXfAMmKrUGOPxp5LuiH2XOMxIURDDZDTiKqfFbL1OJp4O/XPkgNw7ulcFVDgGhccptuXmHTZNlozSps1ZOoMAY3bKsdIIzKWL6vkeFW/xclWPiX3VDVVgw68rrEwTHUC015yLLmvEgfJPZoRJPZoTUI0FabtIw4l7lSY3NMFa9EVvOommYyLisC6jpAMXwvYDwVHCZLJuTaKTD0/UOsDtuUU+nVnL3Tb2ve71/+bBfeGh9MsDCWtMgomvs2m9ZC49o/A2/nhWhZKyjMMw6tTwJl6VhmLURc3Vm2gXGdVLejUdpWM60TJIz5LsymNzUNyPV+uyq8NkGgbSuu9ta75jrz0m8X4r7GWsPLfmfGdjfM6CmzsNbbj2soenOvhOoSQJ5t7NLXFGdjUtuqIbG1LmfC3R8iqtlR7JvjBlSHcahvbjC2ZDqvgc73O3GrnGXxc+e9MbaseMfX8LDUktbelNmWphvdOb9NLgOGnVJXW7i6A1PNVVpQM/2rXvw6V2cbwQzvm3EanN/H3V9dLqlGy+vP3/Ndj0IhfbzzO5F/vEeve2krkdndd9b573XVloA/tnv6y2++Xa/717/Zer0vLfwJ6/A0=);strokeColor=none;spacingTop=-3;spacingBottom=-3;spacingLeft=-3;spacingRight=-3;points=[];labelBackgroundColor=none;rounded=0;html=1;whiteSpace=wrap;" vertex="1" parent="p18OMniudlgOb_beyLV6-42">
          <mxGeometry x="35.086419753086425" y="1.2619047619047619" width="30.246913580246915" height="31.547619047619047" as="geometry" />
        </mxCell>
        <mxCell id="p18OMniudlgOb_beyLV6-49" style="vsdxID=42;fillColor=#2d5967;gradientColor=none;shape=stencil(nZFLDsIwDERP420U4gqRdSn3qNSUWISkSkOB25NgISokft3N2M9ezADWo20HA0qOKYaDOVOXLOAWlCJvTaSUFWADWPchmn0MJ9+xH9pCFnUMU/lw4btKC70pV0peeSLvbsewIz+D5TJwJT+gqhJa/44/lsvgtSj2Hf5XFl/gLJ6R9+QcNzbfv1aUR1wvNjc=);strokeColor=none;spacingTop=-3;spacingBottom=-3;spacingLeft=-3;spacingRight=-3;points=[];labelBackgroundColor=none;rounded=0;html=1;whiteSpace=wrap;" vertex="1" parent="p18OMniudlgOb_beyLV6-42">
          <mxGeometry x="36.29629629629629" y="56.785714285714285" width="2.4197530864197527" height="18.92857142857143" as="geometry" />
        </mxCell>
        <mxCell id="p18OMniudlgOb_beyLV6-50" style="vsdxID=43;fillColor=#2d5967;gradientColor=none;shape=stencil(nZHBDoIwEES/Zq/N0jUGzoj/QUKxjbUlpaL+va0bI3pA9Daz+3YPM0D1qNtBgcQxBn9UF9NFDbQDKY3TKpiYFFADVPc+qEPwZ9exH9pMZnXyU/5w5btNJaoyX0m88QQfbs+wNW4G4xtYbEW2K2Fc+FuSoGI9/lz+BS+gP2XxBU7iFXlvrOXG5vvPitKI66XmDg==);strokeColor=none;spacingTop=-3;spacingBottom=-3;spacingLeft=-3;spacingRight=-3;points=[];labelBackgroundColor=none;rounded=0;html=1;whiteSpace=wrap;" vertex="1" parent="p18OMniudlgOb_beyLV6-42">
          <mxGeometry x="61.7037037037037" y="56.785714285714285" width="2.4197530864197527" height="18.92857142857143" as="geometry" />
        </mxCell>
        <mxCell id="p18OMniudlgOb_beyLV6-51" style="vsdxID=44;fillColor=#2d5967;gradientColor=none;shape=stencil(UzV2Ls5ILEhVNTIoLinKz04tz0wpyVA1dlE1MsrMy0gtyiwBslSNXVWNndPyi1LTi/JL81Ig/IJEkEoQKze/DGRCBUSfAUiHkUElhGdoqWdkAhZxgyjOyczDrdjAALdSmCRZivEoNTXQMzAiVjElnkNXDGQgwjAtMycHEgXI8uhhDhSCxJexKwA=);strokeColor=none;spacingTop=-3;spacingBottom=-3;spacingLeft=-3;spacingRight=-3;points=[];labelBackgroundColor=none;rounded=0;html=1;whiteSpace=wrap;" vertex="1" parent="p18OMniudlgOb_beyLV6-42">
          <mxGeometry x="89.53086419753087" y="60.57142857142857" width="2.4197530864197527" height="15.142857142857142" as="geometry" />
        </mxCell>
        <mxCell id="p18OMniudlgOb_beyLV6-52" style="vsdxID=45;fillColor=#2d5967;gradientColor=none;shape=stencil(UzV2Ls5ILEhVNTIoLinKz04tz0wpyVA1dlE1MsrMy0gtyiwBslSNXVWNndPyi1LTi/JL81Ig/IJEkEoQKze/DGRCBUSfAUiHkUElMs8NojAnMw+nQkMDPEphkuQpttQzMsGt3MRSz5w8J5OnEMhABF1aZk4OJOSR5dGDGigEiSZjVwA=);strokeColor=none;spacingTop=-3;spacingBottom=-3;spacingLeft=-3;spacingRight=-3;points=[];labelBackgroundColor=none;rounded=0;html=1;whiteSpace=wrap;" vertex="1" parent="p18OMniudlgOb_beyLV6-42">
          <mxGeometry x="8.469135802469134" y="60.57142857142857" width="2.4197530864197527" height="15.142857142857142" as="geometry" />
        </mxCell>
        <mxCell id="p18OMniudlgOb_beyLV6-53" value="&lt;div style=&quot;font-size: 1px&quot;&gt;&lt;p style=&quot;align:center;margin-left:0;margin-right:0;margin-top:0px;margin-bottom:0px;text-indent:0;valign:middle;direction:ltr;&quot;&gt;&lt;font style=&quot;font-size:16.93px;font-family:Oracle Sans;color:#000000;direction:ltr;letter-spacing:0px;line-height:120%;opacity:1&quot;&gt;User Group&lt;br/&gt;&lt;/font&gt;&lt;/p&gt;&lt;/div&gt;" style="verticalAlign=middle;align=center;vsdxID=47;fillColor=none;gradientColor=none;shape=stencil(nZBLDoAgDERP0z3SIyjew0SURgSD+Lu9kMZoXLhwN9O+tukAlrNpJg1SzDH4QW/URgNYgZTkjA4UkwJUgGXng+6DX1zLfmoymdXo17xh5zmRJ6Q42BWCfc2oJfdAr+Yv+AP9Cb7OJ3H/2JG1HNGz/84klThPVCc=);strokeColor=none;spacingTop=-3;spacingBottom=-3;spacingLeft=-3;spacingRight=-3;points=[];labelBackgroundColor=none;rounded=0;html=1;whiteSpace=wrap;" vertex="1" parent="p18OMniudlgOb_beyLV6-1">
          <mxGeometry x="-12.100987654321537" y="159" width="113.72839506172842" height="25.238095238095237" as="geometry" />
        </mxCell>
        <mxCell id="p18OMniudlgOb_beyLV6-31" style="vsdxID=70;fillColor=none;gradientColor=none;strokeColor=none;spacingTop=-3;spacingBottom=-3;spacingLeft=-3;spacingRight=-3;points=[];labelBackgroundColor=none;rounded=0;html=1;whiteSpace=wrap;" vertex="1" parent="p18OMniudlgOb_beyLV6-1">
          <mxGeometry x="208.14469135802415" y="75.71428571428578" width="101.62962962962962" height="106" as="geometry" />
        </mxCell>
        <mxCell id="p18OMniudlgOb_beyLV6-32" style="vsdxID=71;fillColor=none;gradientColor=none;strokeColor=none;spacingTop=-3;spacingBottom=-3;spacingLeft=-3;spacingRight=-3;points=[];labelBackgroundColor=none;rounded=0;html=1;whiteSpace=wrap;" vertex="1" parent="p18OMniudlgOb_beyLV6-31">
          <mxGeometry width="101.62962962962962" height="106" as="geometry" />
        </mxCell>
        <mxCell id="p18OMniudlgOb_beyLV6-33" style="vsdxID=72;fillColor=#FFFFFF;gradientColor=none;shape=stencil(lZPRDoIwDEW/Zq9LWUHCs+J/EAVZRCATFP/eYYdsAzW+td2922mzMtxey6zNmYBrp5pzfpfHrmS4Y0LIusyV7HTEMGW4LRqVn1TT10fK22xUjtGluY03DOSLOEajScCDCknC482rsif9oVdkCEggeIjGEfgWGASVwChMmsQchVGgqzBpEvLQfrWStUUJDuKb+QMhuHgz8ERnteDyTnDWVBzcVTiNvnFnCN/o9Cyi2CUEFy8Ab3xWB+hLfOJVxFnuI3+AnA1L6kEsG/HJB1zOxkNfBf39Hf/V62D++4WsKlod+9zfFV2iPcP0CQ==);strokeColor=none;spacingTop=-3;spacingBottom=-3;spacingLeft=-3;spacingRight=-3;points=[];labelBackgroundColor=none;rounded=0;html=1;whiteSpace=wrap;" vertex="1" parent="p18OMniudlgOb_beyLV6-32">
          <mxGeometry x="1.2098765432098764" y="1.2619047619047619" width="99.2098765432099" height="103.47619047619048" as="geometry" />
        </mxCell>
        <mxCell id="p18OMniudlgOb_beyLV6-34" style="vsdxID=73;fillColor=#FFFFFF;gradientColor=none;shape=stencil(lZXRdoIwDIafprc9aUMpvXb6Hp6JgzMmHsSNvf1gLbQNCHpX4h/88iehDHe34njNmYRb29Sf+U95aguGb0zK8lLkTdn2J4Z7hrtz3eQfTX2/nOzz9Tgoh9NX/T28obN5BjmqIUvCr41Ijtl/4GD17/fGJgiXoXhiXIYgKdBJJ9IcR5ELJVy6SIdzkQulPMHwz6vyEsIGCRN+JlZpgxRfgFEEN6jJV5ClhDfwCqlqEbgvR8S8VE95e5c0wdU8lTFu77cmtIprEdMGIs+v9GPYIGG5GZQ1SBCzHstZPXI2LDhzCZdnkIzB5sy+qt/aCXihxbBuWaZiyyD2C6hZdAghdmp9YSAi21wWYHTyREInb+J3EQHANro5Sh41R8U7TeQLGy2Ih56BQgXbPJWCVPPcenj9c9thDNcp/U5O3Ry5Um5EjErsXPjorLu5Nrr9wV8E57Kq7D0S/k4vjj5kLx3c/wE=);strokeColor=none;spacingTop=-3;spacingBottom=-3;spacingLeft=-3;spacingRight=-3;points=[];labelBackgroundColor=none;rounded=0;html=1;whiteSpace=wrap;" vertex="1" parent="p18OMniudlgOb_beyLV6-32">
          <mxGeometry width="101.62962962962962" height="106" as="geometry" />
        </mxCell>
        <mxCell id="p18OMniudlgOb_beyLV6-35" style="vsdxID=74;fillColor=none;gradientColor=none;strokeColor=none;spacingTop=-3;spacingBottom=-3;spacingLeft=-3;spacingRight=-3;points=[];labelBackgroundColor=none;rounded=0;html=1;whiteSpace=wrap;" vertex="1" parent="p18OMniudlgOb_beyLV6-31">
          <mxGeometry x="15.728395061728396" y="23.976190476190478" width="67.75308641975307" height="68.14285714285714" as="geometry" />
        </mxCell>
        <mxCell id="p18OMniudlgOb_beyLV6-36" style="vsdxID=75;fillColor=#2d5967;gradientColor=none;shape=stencil(lZPLDoMgEEW/hi2BoVZdW/sfJmIhpWJQ+/j7QklTH5Hibpg598IAg1jRi6rjCEg/GH3lD1kPArETApCt4EYONkKsRKxotOEXo8e29uuucqSLbvruHJ5ed8xwmjgVkJfPUIoh/2TOXqBkOxFkKZ7zhxzTAL/ewDrQbZ7Z7ffwFPadZ+3/p+HdNxQhmL/Bgibb1hBNkhmYxHtSEmCXfYXYbzHmDPE3ECJt8PvmjVTKT8m0vhwLm/Ijxco3);strokeColor=none;spacingTop=-3;spacingBottom=-3;spacingLeft=-3;spacingRight=-3;points=[];labelBackgroundColor=none;rounded=0;html=1;whiteSpace=wrap;" vertex="1" parent="p18OMniudlgOb_beyLV6-35">
          <mxGeometry x="32.66666666666667" width="33.87654320987654" height="31.547619047619047" as="geometry" />
        </mxCell>
        <mxCell id="p18OMniudlgOb_beyLV6-37" style="vsdxID=76;fillColor=#2d5967;gradientColor=none;shape=stencil(lVTRcoMgEPwaXpnjiEWf0/Q/Mo2pTK1miGnj31cC6gEjTd9g3XN3jwMm99fmeKkZwnUw/Wf9o09Dw+QrQ9RdUxs9TCsmD0zuz72pP0x/605ufzlapl199d/2D3dXV4AtQRjdVgiO1QN5c+z3m3F04QgKeKV8iYhr4I4OKhX3yOgRLLndP0gyIXlkV3GRVSclqx/xEopTi6sfEYovuWXE2FDGioMMpclPvYzAGRkxtScT0rOxSYlI24mpQ0xPZiN3cuCt7v4xHtlhgmxDkRdlGArCQBCGIQVzmChLkRWEUEwpvos7SCzNHQT4o3+QFSUqy3WBKOcCLENDrMmY81TWlT53W3ClomtCrIUd38oaSGbnJGBOi/X1Oeu2dY8X/R6/VhPkXjp5+AU=);strokeColor=none;spacingTop=-3;spacingBottom=-3;spacingLeft=-3;spacingRight=-3;points=[];labelBackgroundColor=none;rounded=0;html=1;whiteSpace=wrap;" vertex="1" parent="p18OMniudlgOb_beyLV6-35">
          <mxGeometry x="18.148148148148145" y="36.595238095238095" width="29.037037037037035" height="31.547619047619047" as="geometry" />
        </mxCell>
        <mxCell id="p18OMniudlgOb_beyLV6-38" style="vsdxID=77;fillColor=#2d5967;gradientColor=none;shape=stencil(lZLLDoMgEEW/ZraEh624tvY/TMRCSsEgff19oaSpNqnK7jJz7mQmXGD1KNtBAMWjd/Ys7qrzEtgBKFVGCqd8UMAaYHVvnTg5ezVdeg9tJKO62Fuc8Ei+okJ7Fl0UP1OFFohU78oxGbQyEwMnqNzNDLxECzzhiObw2QttMKydjP9PxzOQ4AX009wEZy2xAgfx/d5eaZ3SMe3/xiGUUpRY8wI=);strokeColor=none;spacingTop=-3;spacingBottom=-3;spacingLeft=-3;spacingRight=-3;points=[];labelBackgroundColor=none;rounded=0;html=1;whiteSpace=wrap;" vertex="1" parent="p18OMniudlgOb_beyLV6-35">
          <mxGeometry width="32.66666666666667" height="31.547619047619047" as="geometry" />
        </mxCell>
        <mxCell id="p18OMniudlgOb_beyLV6-39" style="vsdxID=78;fillColor=#2d5967;gradientColor=none;shape=stencil(pZRRc4IwDMc/TV97bUIFn51+D09x9MbAq7jpt7csDNp0sO18S9Jfwj8JF4GbS7U/lwLUpXPtW/lpj10l8EUA2KYqne28JXArcHNqXfnq2mtzJP+878neem8/+go3ylsbmZs+C9SdIlqpL39HeG2bAM8kLNKHq6Pqmp5hgHVMqxtQYHDvg7vOZV4MBMYEjnqhmNenInELjYxK/o8mEnjTU4JO2/rutIg7nyaD6WLwD5v5dZHx3pHTmdT5fPUE958zZmkIQYYeUwqMp5Cx9a+k1vEYgh8OOfTzHFaxTk5znR4ALjSQMSkzTGvQDSYQzkyJa5VPLeFJ3BvTWTjZuqarEr7zM+JDdIJw+wA=);strokeColor=none;spacingTop=-3;spacingBottom=-3;spacingLeft=-3;spacingRight=-3;points=[];labelBackgroundColor=none;rounded=0;html=1;whiteSpace=wrap;" vertex="1" parent="p18OMniudlgOb_beyLV6-31">
          <mxGeometry x="2.4197530864197527" y="12.619047619047619" width="96.79012345679013" height="90.85714285714285" as="geometry" />
        </mxCell>
        <mxCell id="p18OMniudlgOb_beyLV6-40" style="vsdxID=79;fillColor=#2d5967;gradientColor=none;shape=stencil(nZLbDoIwDEC/Zq9ktILwjPAfRIYsIiMDFP9eli5hw1v0re1Ol5O2DLOhKXvBgA+jVmdxk9XYMDwwANk1QstxiRjmDLNaaXHSauoqyvvSkCa6qKv5Yaa+kHPTA/zu5wXBrewc+G80SoIYXPg4abIIfdymsA+ilEoz2JIlwGuYkdJdAJEF0AVeuqWxJ8c/iaWJb8Z9q3V88GyOWwbfTMPX+2klX+AlWDdfy7alw3Hft5eylOjKMH8A);strokeColor=none;spacingTop=-3;spacingBottom=-3;spacingLeft=-3;spacingRight=-3;points=[];labelBackgroundColor=none;rounded=0;html=1;whiteSpace=wrap;" vertex="1" parent="p18OMniudlgOb_beyLV6-31">
          <mxGeometry x="2.4197530864197527" y="2.5238095238095237" width="96.79012345679013" height="6.309523809523809" as="geometry" />
        </mxCell>
        <mxCell id="p18OMniudlgOb_beyLV6-41" value="&lt;div style=&quot;font-size: 1px&quot;&gt;&lt;font style=&quot;font-size:16.93px;font-family:Oracle Sans;color:#000000;direction:ltr;letter-spacing:0px;line-height:120%;opacity:1&quot;&gt;Object Storage&lt;br/&gt;&lt;/font&gt;&lt;/div&gt;" style="verticalAlign=middle;align=center;vsdxID=81;fillColor=none;gradientColor=none;shape=stencil(nZBLDoAgDERP0z3SIyjew0SURgSD+Lu9kMZoXLhwN9O+tukAlrNpJg1SzDH4QW/URgNYgZTkjA4UkwJUgGXng+6DX1zLfmoymdXo17xh5zmRJ6Q42BWCfc2oJfdAr+Yv+AP9Cb7OJ3H/2JG1HNGz/84klThPVCc=);strokeColor=none;spacingTop=-3;spacingBottom=-3;spacingLeft=-3;spacingRight=-3;points=[];labelBackgroundColor=none;rounded=0;html=1;whiteSpace=wrap;" vertex="1" parent="p18OMniudlgOb_beyLV6-1">
          <mxGeometry x="189.996543209876" y="188.02380952380958" width="137.92592592592595" height="25.238095238095237" as="geometry" />
        </mxCell>
        <mxCell id="p18OMniudlgOb_beyLV6-54" style="vsdxID=139;fillColor=none;gradientColor=none;strokeColor=none;spacingTop=-3;spacingBottom=-3;spacingLeft=-3;spacingRight=-3;points=[];labelBackgroundColor=none;rounded=0;html=1;whiteSpace=wrap;" vertex="1" parent="p18OMniudlgOb_beyLV6-1">
          <mxGeometry x="208.14469135802412" y="319.9961904761904" width="101.62962962962962" height="104.73809523809523" as="geometry" />
        </mxCell>
        <mxCell id="p18OMniudlgOb_beyLV6-55" style="vsdxID=140;fillColor=none;gradientColor=none;strokeColor=none;spacingTop=-3;spacingBottom=-3;spacingLeft=-3;spacingRight=-3;points=[];labelBackgroundColor=none;rounded=0;html=1;whiteSpace=wrap;" vertex="1" parent="p18OMniudlgOb_beyLV6-54">
          <mxGeometry width="101.62962962962962" height="104.73809523809523" as="geometry" />
        </mxCell>
        <mxCell id="p18OMniudlgOb_beyLV6-56" style="vsdxID=141;fillColor=#FFFFFF;gradientColor=none;shape=stencil(pVbLcoMwDPwarhpb8vOctv+RaUjDNE0yJGnTv6+pbYJNccpwM2IXL9JKdkWr8259qitk50t7fK+/ms1lV9FThdgcdnXbXNyqoueKVttjW7+1x+th459P6w7ZrT6On90Xbp6nNGjqWMi+fYQz9vv84uH75lCEWwRupwlCA7PLCDrR83ptvX7u35IBUgEfQsqANj50w4DiQDygQkhx0CF0o4BiwCMqhCSCpWm1KBOpj9AWuEgIioEoJIPNAXMBUicEIijgkYPiCV4okAXCMD0ThFF1BnmPIQ15cQYlxH6r6LNYnKExqM+n5HOsxAm4LvwgAaplBGRgTaFGCGSXEQrdOZYzC6yBcBrfeRsX4anYyK4fVeymu3sQU690vZ1ZxQDa1CrKgs36uPNCoZBaAKa984hgQWV/Z4DJaYJ16eZzCHEO97OlUMvxx+/T7Z/yHxEE6NQtstwa2g2rMn5kADcdTTbJOViZGcAdH9Em2BNZtAn1m8XdqdeDouBWyuQaBVTAu4PQqmUE3cv+k2AMGLmMMPMoXwZ3i/slY9vs9/6OMnyfX0pcyF9o6PkH);strokeColor=none;spacingTop=-3;spacingBottom=-3;spacingLeft=-3;spacingRight=-3;points=[];labelBackgroundColor=none;rounded=0;html=1;whiteSpace=wrap;" vertex="1" parent="p18OMniudlgOb_beyLV6-55">
          <mxGeometry x="1.2098765432098764" width="98" height="102.21428571428571" as="geometry" />
        </mxCell>
        <mxCell id="p18OMniudlgOb_beyLV6-57" style="vsdxID=142;fillColor=#FFFFFF;gradientColor=none;shape=stencil(pVnbUtwwDP2afdXYli/xM4X/YMpSdkpZZoGW/n2VJnZiK5E35C1oz/FNR7IsDnjz9nT/ejwY9fZ+Of88/jk9vD8d8NvBmNPL0/FyeqevA94e8ObxfDn+uJw/Xh6Gv1/ve2T/9ev8ux/hc+AhgsKeZdTfwWIAu/+GuwH/fHoR8RGcWcc7DTHuwqMGi3PC94/LsAM9ALyCLlFGE+ZNqE8zogL4hBpNGMGMpk8cUR14PaJGk+0AcX3BwYINxYJbhAi+PEGUjyRqQLuJEECXZ+jUluHpQK0gAb6BFsFCLGdwBrRdJ5AXOicTmAgCxOS4ZNL5GLIIyJSWbvJcutQAzWUSKMkignKCaGeMwdJ5iOL+ssq+hicfBL9OoOHsTgKJyAsa40vaThBESTEU9qBpNhckvVAIdbVeAnS+1AvlkVAlDdJ6qARDKJVQSUMafFhfsLGTDq8jZJUmvKxIrLNoA689aF/mGFGRdEuYMkJtWuHyemZHtIxnDppdNJPPxj1MDpq5cfLZmCqyg+b6SD7LyeFKRWmT1HHlvbiZYOQsql2dZLYTNl7te/FVqeEAS40JIc0HF8B8pxKY/NJ9HSyfyQK+4SROkHWz4NXNQmsQmJ+2E+RNc0K/K6EgsB4w7COYXOytJRxKSImSTApinXD0dI0lU5iKTcyTxeTVlINcGms5oWKqcnOClAm6A1VVhQ0C/VzVnXIVpm1Ot1fOUEvZiXeCKrBevgDZhdbAm1AvpjWBrmvO1gwzH1+zXb4iZytJNieoCUzDM3WmqsaksmzScJjq8VTV8KfQPIRGU1Ci/3nQRbUxSqMRi8iFslAmeA+m20lo1LWMoJVwofAyWITzulyGd6nK/yK8sVlOCPJTdIEQxKSz8HKRCQtvowaBOWw7Qd40J3RypFNcO7+PEPKzZO2BbCZPJBOvp8mE9QPZsOutzwNpLMwrkt4XAcFVLYAGIYCrnnRyxR46MKYkyKXaQhtDJiw0ShoEOvJtBCoC7JZNR3JXeaq1DKobWpWXrm00kurhG60tvn4MYuXIT4iendKlu9ALkwkL3bYGgemoRWBKRbEOoFBQZexSpSc5rQ9tIxNYsMfpua2zJ1hL1ICrgh15d4MCNR/5VN6K7TBbO6nR82V4OSHzHrGM58+NrfjGQ3jTw1YG08fUqn88PT8Pnf7573Vrn0zDvwXw9h8=);strokeColor=none;spacingTop=-3;spacingBottom=-3;spacingLeft=-3;spacingRight=-3;points=[];labelBackgroundColor=none;rounded=0;html=1;whiteSpace=wrap;" vertex="1" parent="p18OMniudlgOb_beyLV6-55">
          <mxGeometry width="101.62962962962962" height="104.73809523809523" as="geometry" />
        </mxCell>
        <mxCell id="p18OMniudlgOb_beyLV6-58" style="vsdxID=143;fillColor=#2d5967;gradientColor=none;shape=stencil(pVfbdtsgEPwave5hWW56TpP/yGmcWqeunaM4bfr3RZWQWLCRiN5kPAuz7OwADT28H5/fDo0U79f+8vPwp3u5Hhv61kjZnY+Hvrv6r4YeG3p4vfSHH/3l4/wy/n57HpDD16/L72GGzzHOtKDbIUqKv+OIRrD6/8jTGHDqzlGANYBUE+AQ0LAAI6CAbwmsrMCjEAyt2pXZW8fw5NboK6wJsBoc31Hl7qPz/efo7x/9WC6c8G7B48xnpCM+5QRCoMB5GiIEGVC01C0UZhoiEVA3ycYRU7KlvaZs6yrholB1uaT4BTC2NTwq0XgfrRxItQOdFSjVhxeDSfURlX5Rw9yTMlX1LBC/2JwarUsZV6ScoAkE1xKZovh4l+til0sNhmrwvmF0janJFlZcMyuMgKQu5kZdHGBwp9DLS3eHGliwITlaXKQgoyhgckFZdCT8Oji48W0v9XregXaFVsmI1IFdaf98bfUeuF+urI3Yrxeft6mrO3DBDWQuoUgKQWi0ScsbrgD8zoAGBD9DURdbNw+gcndZMGoXvprQ/oDkXgU6MSBT44VK1fhsae4qIitgnqJT0CYNqspXqSygLVu+JSCzL6Ca0v4AvktEaYBmnpedExF+GlL5QTEMcSsgxX1Ah/OS2P93VtXeW/ii83zBaqIOkDkvylG0Jd04YOGSWl9Eb6ZTTteY0qrR9mEyn8zLIHNelKNuppvcFVe0wJVj/SnFXU2lB0miTQLFp1ey+BbyNo81eJ3eI1YI+QUUb0dti/TRbkZX786GAP+xvJNfu9NpfGbH/6fvaj80vsnp8R8=);strokeColor=none;spacingTop=-3;spacingBottom=-3;spacingLeft=-3;spacingRight=-3;points=[];labelBackgroundColor=none;rounded=0;html=1;whiteSpace=wrap;" vertex="1" parent="p18OMniudlgOb_beyLV6-54">
          <mxGeometry x="3.6296296296296293" y="1.2619047619047619" width="94.37037037037038" height="99.69047619047619" as="geometry" />
        </mxCell>
        <mxCell id="p18OMniudlgOb_beyLV6-59" value="&lt;div style=&quot;font-size: 1px&quot;&gt;&lt;p style=&quot;align:center;margin-left:0;margin-right:0;margin-top:0px;margin-bottom:0px;text-indent:0;valign:middle;direction:ltr;&quot;&gt;&lt;font style=&quot;font-size:16.93px;font-family:Oracle Sans;color:#000000;direction:ltr;letter-spacing:0px;line-height:120%;opacity:1&quot;&gt;Events&lt;br/&gt;&lt;/font&gt;&lt;/p&gt;&lt;/div&gt;" style="verticalAlign=middle;align=center;vsdxID=145;fillColor=none;gradientColor=none;shape=stencil(nZBLDoAgDERP0z3SIyjew0SURgSD+Lu9kMZoXLhwN9O+tukAlrNpJg1SzDH4QW/URgNYgZTkjA4UkwJUgGXng+6DX1zLfmoymdXo17xh5zmRJ6Q42BWCfc2oJfdAr+Yv+AP9Cb7OJ3H/2JG1HNGz/84klThPVCc=);strokeColor=none;spacingTop=-3;spacingBottom=-3;spacingLeft=-3;spacingRight=-3;points=[];labelBackgroundColor=none;rounded=0;html=1;whiteSpace=wrap;" vertex="1" parent="p18OMniudlgOb_beyLV6-1">
          <mxGeometry x="223.87308641975255" y="429.78190476190474" width="71.38271604938272" height="25.238095238095237" as="geometry" />
        </mxCell>
        <mxCell id="p18OMniudlgOb_beyLV6-104" value="" style="group" vertex="1" connectable="0" parent="p18OMniudlgOb_beyLV6-1">
          <mxGeometry x="95.58" y="122.03" width="114.42" height="13.36" as="geometry" />
        </mxCell>
        <mxCell id="p18OMniudlgOb_beyLV6-105" value="" style="endArrow=open;html=1;startArrow=none;startFill=0;endFill=0;rounded=0;fontFamily=Oracle Sans;fontSize=10.5;fontColor=#312D2A;labelBackgroundColor=none;strokeColor=#312D2A;exitX=0.5;exitY=0;exitDx=0;exitDy=0;endSize=6;elbow=vertical;" edge="1" parent="p18OMniudlgOb_beyLV6-104">
          <mxGeometry x="15.211907514450866" y="-80.10999999999936" width="33.06936416184971" height="49.999999999999524" as="geometry">
            <mxPoint y="7.889999999999797" as="sourcePoint" />
            <mxPoint x="114.42" y="7.999999999999924" as="targetPoint" />
          </mxGeometry>
        </mxCell>
        <mxCell id="p18OMniudlgOb_beyLV6-106" value="Upload Files" style="whiteSpace=wrap;html=1;align=center;fontFamily=Oracle Sans;verticalAlign=middle;fillColor=#FFFFFF;rounded=0;arcSize=8;strokeColor=none;fontColor=#312D2A;fontSize=10;" vertex="1" parent="p18OMniudlgOb_beyLV6-104">
          <mxGeometry x="28.43965317919075" width="56.21791907514451" height="13.359999999999872" as="geometry" />
        </mxCell>
        <mxCell id="p18OMniudlgOb_beyLV6-108" value="&lt;b&gt;&lt;font color=&quot;#ffffff&quot;&gt;1&lt;/font&gt;&lt;/b&gt;" style="rounded=1;whiteSpace=wrap;html=1;fillColor=#AE562C;strokeColor=#FFFFFF;fontColor=#161513;fontFamily=Oracle Sans;labelBackgroundColor=none;align=center;arcSize=50;" vertex="1" parent="p18OMniudlgOb_beyLV6-1">
          <mxGeometry x="101.63" y="95" width="20" height="20" as="geometry" />
        </mxCell>
        <mxCell id="p18OMniudlgOb_beyLV6-110" value="" style="endArrow=open;html=1;startArrow=none;startFill=0;endFill=0;rounded=0;fontFamily=Oracle Sans;fontSize=10.5;fontColor=#312D2A;labelBackgroundColor=none;strokeColor=#312D2A;entryX=0.491;entryY=0.019;entryDx=0;entryDy=0;edgeStyle=orthogonalEdgeStyle;endSize=6;elbow=vertical;entryPerimeter=0;exitX=0.491;exitY=1.003;exitDx=0;exitDy=0;exitPerimeter=0;" edge="1" parent="p18OMniudlgOb_beyLV6-1" source="p18OMniudlgOb_beyLV6-34" target="p18OMniudlgOb_beyLV6-57">
          <mxGeometry x="240" y="209" width="50" height="50" as="geometry">
            <mxPoint x="280" y="230" as="sourcePoint" />
            <mxPoint x="305.5" y="210" as="targetPoint" />
          </mxGeometry>
        </mxCell>
        <mxCell id="p18OMniudlgOb_beyLV6-109" value="" style="group;rotation=180;" vertex="1" connectable="0" parent="p18OMniudlgOb_beyLV6-1">
          <mxGeometry x="233.46" y="190" width="51" height="109.72999999999956" as="geometry" />
        </mxCell>
        <mxCell id="p18OMniudlgOb_beyLV6-111" value="Emits Event" style="whiteSpace=wrap;html=1;align=center;fontFamily=Oracle Sans;verticalAlign=middle;fillColor=#FFFFFF;rounded=0;arcSize=8;strokeColor=none;fontColor=#312D2A;fontSize=10;" vertex="1" parent="p18OMniudlgOb_beyLV6-109">
          <mxGeometry y="38.11000000000013" width="51" height="30" as="geometry" />
        </mxCell>
        <mxCell id="p18OMniudlgOb_beyLV6-112" value="&lt;b&gt;&lt;font color=&quot;#ffffff&quot;&gt;2&lt;/font&gt;&lt;/b&gt;" style="rounded=1;whiteSpace=wrap;html=1;fillColor=#AE562C;strokeColor=#FFFFFF;fontColor=#161513;fontFamily=Oracle Sans;labelBackgroundColor=none;align=center;arcSize=50;" vertex="1" parent="p18OMniudlgOb_beyLV6-109">
          <mxGeometry x="15.5" y="67.11000000000013" width="20" height="20" as="geometry" />
        </mxCell>
        <mxCell id="p18OMniudlgOb_beyLV6-116" value="&lt;b&gt;&lt;font color=&quot;#ffffff&quot;&gt;3&lt;/font&gt;&lt;/b&gt;" style="rounded=1;whiteSpace=wrap;html=1;fillColor=#AE562C;strokeColor=#FFFFFF;fontColor=#161513;fontFamily=Oracle Sans;labelBackgroundColor=none;align=center;arcSize=50;" vertex="1" parent="p18OMniudlgOb_beyLV6-1">
          <mxGeometry x="320" y="340" width="20" height="20" as="geometry" />
        </mxCell>
      </root>
    </mxGraphModel>
  </diagram>
</mxfile>
